<svg width="85" height="82" viewBox="0 0 85 82" fill="none" xmlns="http://www.w3.org/2000/svg">
<g id="_x32_2_Thumbs_Up">
<g id="Group">
<path id="Vector" d="M84.8065 38.959C84.1954 36.6037 82.3273 35.072 79.9276 34.9479C79.1042 34.9035 76.4301 34.9123 71.1 34.9303C67.2306 34.9391 61.9357 34.9479 54.932 34.9479H54.8965C53.3912 34.9479 52.1428 34.5317 51.3989 33.7614C50.7438 33.0973 50.4162 32.15 50.4338 30.9102C50.8146 29.0597 51.1599 27.2447 51.4609 25.5091C52.5676 19.0368 53.1255 12.9805 48.7692 4.42711C46.7681 0.486972 45.6968 0.0709462 41.9956 0C38.693 0 37.2055 2.74472 37.2055 4.69278C37.2319 8.51778 36.5768 17.7618 34.3898 21.932C25.5532 38.7993 24.2252 40.1894 21.8255 41.801V40.8537C21.8255 38.5692 19.975 36.7187 17.6905 36.7187H4.12606C1.8507 36.7188 0 38.5694 0 40.8539V76.9794C0 79.2639 1.85053 81.1144 4.12623 81.1144H17.691C19.9755 81.1144 21.826 79.2639 21.826 76.9794V74.9961C25.3766 76.5633 35.1162 79.7331 48.681 79.7331C54.0822 79.7331 60.0942 79.2283 66.5665 77.909C72.1891 76.7755 76.0584 72.9949 75.5537 69.1167C75.4385 68.2047 75.0757 67.3725 74.4646 66.6021C75.6864 65.8494 77.5637 64.3796 78.2276 62.1308C78.7236 60.4574 78.4579 58.6952 77.4398 56.8714C79.7241 55.1714 82.4334 51.5766 80.4413 46.9723C80.8753 46.804 81.3445 46.6093 81.6368 46.4324H81.6456C84.6736 44.5371 85.4084 41.3142 84.8065 38.959ZM80.7157 44.9179C80.4058 45.1039 79.485 45.4491 78.9359 45.6262C78.9183 45.635 78.9003 45.6528 78.8827 45.6618C78.8561 45.6706 78.8296 45.6618 78.812 45.6794C73.7208 48.2472 61.7586 48.4065 56.207 46.6533C55.7378 46.5028 55.2419 46.7685 55.1003 47.2289C54.9498 47.698 55.2067 48.194 55.6759 48.3445C58.2436 49.1503 62.0421 49.5841 65.9734 49.5841C70.6752 49.5841 75.5715 48.9642 78.7855 47.6273C80.8222 52.3111 76.6517 55.2951 75.8991 55.7732C70.3563 57.4998 61.7236 57.491 56.2072 55.7556C55.738 55.6051 55.2421 55.8707 55.1005 56.3311C54.95 56.8003 55.2068 57.2963 55.676 57.4468C58.598 58.3676 62.3433 58.8281 66.0887 58.8281C69.5595 58.8281 73.0216 58.4209 75.8373 57.6327C76.6607 59.0671 76.891 60.404 76.5368 61.626C75.8373 64.0077 73.1012 65.3626 72.7206 65.5396C67.2398 67.2572 61.6882 67.2572 56.2074 65.5308C55.7382 65.3802 55.2422 65.6371 55.1007 66.1063C54.9501 66.5755 55.207 67.0714 55.6762 67.2218C58.5982 68.1426 61.5466 68.6031 64.4862 68.6031C67.2487 68.6031 70.0202 68.1781 72.7649 67.3637C73.3581 67.9834 73.7035 68.6211 73.792 69.347C74.1729 72.2422 70.8436 75.2438 66.2128 76.1736C41.2968 81.2294 24.2612 74.1547 21.8264 73.0304V43.9262C22.0389 43.7847 22.2426 43.6517 22.4283 43.5278C25.3679 41.5887 26.4658 40.8627 35.9576 22.7556C38.4899 17.9299 38.9947 7.83609 38.9769 4.69295C38.9769 3.9315 39.5259 1.77095 41.9785 1.77095C44.9357 1.82411 45.4671 1.83292 47.1936 5.23292C51.3019 13.2991 50.7708 19.0546 49.7172 25.2169C49.425 26.9347 49.0797 28.7408 48.6989 30.5738C48.6901 30.5914 48.6901 30.6093 48.6813 30.6357C48.6725 30.6889 48.6637 30.7597 48.6637 30.804C48.6281 32.5572 49.1153 33.9739 50.1334 35.001C51.2313 36.1257 52.8781 36.7188 54.8971 36.7188C61.954 36.7188 67.2223 36.71 71.1093 36.7012C76.4042 36.6836 79.0517 36.6746 79.8308 36.7188C81.46 36.7986 82.673 37.8079 83.0892 39.4017C83.5403 41.1282 82.9736 43.5102 80.7157 44.9179Z" fill="#F8BF00"/>
</g>
</g>
</svg>
