<svg width="89" height="86" viewBox="0 0 89 86" fill="none" xmlns="http://www.w3.org/2000/svg">
<g id="_x32_9_Success">
<g id="Group">
<path id="Vector" d="M44.4992 16.3789C29.9038 16.3789 18.0312 28.2515 18.0312 42.8468C18.0312 57.4421 29.9038 69.3147 44.4992 69.3147C59.0945 69.3147 70.9671 57.4421 70.9671 42.8468C70.9671 28.2515 59.0945 16.3789 44.4992 16.3789ZM44.4992 67.5293C30.8858 67.5293 19.8165 56.4601 19.8165 42.8466C19.8165 29.2422 30.8856 18.164 44.4992 18.164C58.1127 18.164 69.1818 29.2422 69.1818 42.8466C69.1818 56.4601 58.1125 67.5293 44.4992 67.5293Z" fill="#F8BF00"/>
<path id="Vector_2" d="M85.1437 34.6161C82.537 32.438 81.3854 28.903 82.2156 25.582C82.9921 22.5023 82.3583 19.2529 80.4927 16.682C78.627 14.1112 75.7346 12.5132 72.5477 12.299C69.1556 12.0669 66.1383 9.87981 64.8707 6.71979C63.6924 3.77389 61.2732 1.51538 58.247 0.533418C55.2208 -0.448549 51.9448 -0.0468271 49.2488 1.64923C46.3655 3.45244 42.6429 3.46134 39.7416 1.64033C37.0547 -0.0468273 33.7696 -0.457449 30.7436 0.524518C27.7263 1.51538 25.3071 3.76499 24.1199 6.71979C22.8522 9.87981 19.844 12.0669 16.4339 12.299C13.265 12.5133 10.3727 14.1112 8.49793 16.682C6.63225 19.2529 6.00733 22.5023 6.78407 25.6087C7.60531 28.9028 6.4628 32.4378 3.83817 34.6337C1.40149 36.6782 0 39.6686 0 42.8466C0 46.0156 1.39259 49.015 3.86522 51.0772C6.46297 53.2553 7.60549 56.7903 6.77534 60.1111C6.00767 63.1908 6.63259 66.4311 8.49828 69.0022C10.364 71.573 13.2563 73.171 16.4521 73.3942C19.8442 73.6263 22.8526 75.8133 24.1202 78.9824C25.3074 81.9283 27.7266 84.1868 30.7439 85.1686C31.833 85.5256 32.9488 85.6952 34.0558 85.6952C36.0464 85.6952 38.0192 85.1419 39.76 84.0439C42.6432 82.2406 46.3659 82.2406 49.2491 84.0528C51.9449 85.7399 55.2212 86.1505 58.2474 85.1686C61.2735 84.1866 63.6926 81.9283 64.88 78.9735C66.1385 75.8133 69.1469 73.6263 72.5748 73.3942C75.7437 73.171 78.6271 71.573 80.4928 69.0022C82.3585 66.4313 82.9923 63.1908 82.2247 60.1289L82.2158 60.1022C82.2158 60.0933 82.2158 60.0933 82.2158 60.0844C81.3856 56.7903 82.537 53.2553 85.1617 51.0594C87.5985 49.015 89 46.0245 89 42.8466C89 39.6686 87.5985 36.6693 85.1437 34.6161ZM83.9921 49.7113C80.8677 52.3269 79.4931 56.5671 80.4839 60.5217L81.3498 60.3074L80.4839 60.5395C81.1266 63.1104 80.6089 65.8153 79.0467 67.9577C77.4933 70.1002 75.0921 71.4303 72.4141 71.6177C68.3435 71.8945 64.737 74.5189 63.2195 78.3128C62.2286 80.7676 60.22 82.6513 57.6938 83.4636C55.1765 84.2849 52.4449 83.9456 50.1953 82.5352C46.7407 80.3661 42.2684 80.3661 38.7958 82.5441C36.5464 83.9545 33.8148 84.2938 31.2973 83.4725C28.78 82.6513 26.7625 80.7767 25.7716 78.3039C24.2541 74.5189 20.6477 71.8945 16.5502 71.6088C13.9077 71.4303 11.4976 70.1002 9.94427 67.9577C8.39095 65.8153 7.86428 63.1105 8.51608 60.5128C9.50695 56.5671 8.13216 52.3269 4.98103 49.6846C2.94573 47.9797 1.78524 45.4891 1.78524 42.8468C1.78524 40.1957 2.95463 37.7051 4.99883 35.991C8.12326 33.3755 9.50677 29.1263 8.507 25.1449C7.86428 22.5829 8.39095 19.8782 9.94427 17.7357C11.5067 15.5931 13.9079 14.263 16.577 14.0756C20.6477 13.7988 24.2541 11.1743 25.7807 7.38048C26.7626 4.92566 28.7802 3.042 31.2975 2.22965C32.199 1.93508 33.1274 1.78326 34.0558 1.78326C35.716 1.78326 37.3587 2.25635 38.8138 3.16694C42.2684 5.3272 46.7407 5.3272 50.1955 3.15805C52.4451 1.74766 55.1767 1.40841 57.694 2.22965C60.2202 3.0509 62.2288 4.92548 63.2197 7.38938C64.7372 11.1743 68.3525 13.7988 72.4411 14.0845C75.0835 14.263 77.4937 15.5931 79.047 17.7355C80.6092 19.878 81.127 22.5827 80.4752 25.1716C79.4932 29.1262 80.868 33.3753 84.0102 35.9997C86.0456 37.7047 87.2149 40.1953 87.2149 42.8466C87.2146 45.4889 86.0452 47.9884 83.9921 49.7113Z" fill="#F8BF00"/>
<path id="Vector_3" d="M57.8183 37.8649L44.0623 51.6212C40.9289 54.7545 35.8317 54.7545 32.6985 51.6212L29.1902 48.113C27.7976 46.7115 27.7976 44.453 29.1902 43.0604C30.5381 41.7125 32.8949 41.7125 34.2428 43.0604L37.7509 46.5686C38.0902 46.9167 38.6615 46.9256 39.0097 46.5686L52.7659 32.8125C54.1585 31.4199 56.4259 31.4199 57.8185 32.8125C59.2109 34.2049 59.2109 36.4634 57.8183 37.8649Z" fill="#F8BF00"/>
</g>
</g>
</svg>
