<svg width="83" height="75" viewBox="0 0 83 75" fill="none" xmlns="http://www.w3.org/2000/svg">
<path d="M79.1828 27.814C77.0757 27.4188 75.2585 28.2968 74.2314 29.763L70.1929 35.5397C69.3587 36.725 68.3842 37.7344 67.2869 38.5423L61.3873 42.9934C60.8955 40.7634 58.9026 39.0953 56.5323 39.0953H46.6994C45.9093 39.0953 45.1456 38.8057 44.5573 38.2787L41.0281 35.1444C40.1151 34.3367 38.9386 33.889 37.7184 33.889H26.4898C25.1816 33.889 23.9526 34.3895 23.0219 35.2937L13.5315 44.5646C11.5473 42.7999 8.50969 42.8439 6.61342 44.7402L0.256812 51.0968C-0.085604 51.4392 -0.085604 52.001 0.256812 52.3434L18.4123 70.4989L22.0557 74.1423C22.3981 74.4847 22.9599 74.4847 23.3024 74.1423L29.6586 67.7948C31.274 66.1705 31.5461 63.7387 30.5103 61.8248L54.592 61.0435C57.9193 60.9119 61.1502 59.6653 63.7048 57.5319L75.4867 47.6638C77.4621 46.022 78.9895 43.8799 79.9115 41.4744L82.6769 34.2491C83.7303 31.5189 82.1149 28.4461 79.1828 27.814ZM81.0439 33.617L78.2784 40.8425C77.462 42.9758 76.1012 44.8633 74.3627 46.3119L62.5808 56.1798C60.3246 58.0673 57.4625 59.1735 54.5214 59.2878L29.1317 60.113L14.7952 45.7851L24.2504 36.5581C24.8387 35.9787 25.6551 35.6451 26.4891 35.6451H37.7177C38.5079 35.6451 39.2716 35.9347 39.8688 36.4617L43.3893 39.596C44.3023 40.4037 45.4789 40.8514 46.6991 40.8514H56.5319C58.3053 40.8514 59.7539 42.2999 59.7539 44.0734V44.0909C59.7364 45.8643 58.3053 47.3041 56.5319 47.3041H44.8729C44.6446 47.3041 44.4164 47.3917 44.2496 47.5585L41.2909 50.5173C40.9484 50.8597 40.9484 51.4215 41.2909 51.7639C41.6333 52.1063 42.1951 52.1063 42.5375 51.7639L45.2327 49.06H56.5318C58.8933 49.06 60.8688 47.4094 61.378 45.197L68.3401 39.947C69.578 39.034 70.6841 37.8927 71.6325 36.5495L75.6709 30.7727C76.3205 29.8422 77.462 29.2802 78.8313 29.5348C80.649 29.9298 81.7199 31.8611 81.0439 33.617Z" fill="#F8BF00"/>
<path d="M73.3274 12.0943H78.3729C78.8581 12.0943 79.2508 11.7013 79.2508 11.2163C79.2508 10.7316 78.8581 10.3384 78.3729 10.3384H73.3274C72.8421 10.3384 72.4495 10.7314 72.4495 11.2163C72.4495 11.7013 72.8421 12.0943 73.3274 12.0943Z" fill="#F8BF00"/>
<path d="M73.7904 13.9344C73.378 13.6776 72.837 13.8053 72.5814 14.2173C72.3258 14.6291 72.4529 15.1706 72.8645 15.4262L75.0071 16.7556C75.4143 17.0089 75.9578 16.8885 76.216 16.4727C76.4717 16.0608 76.3445 15.5193 75.9332 15.2637L73.7904 13.9344Z" fill="#F8BF00"/>
<path d="M73.7902 8.4965L75.9328 7.16718C76.3444 6.91157 76.4712 6.37025 76.2157 5.95823C75.9601 5.54637 75.4183 5.41807 75.0068 5.67517L72.8643 7.00466C72.4528 7.26027 72.326 7.80159 72.5813 8.21361C72.8394 8.62911 73.3825 8.75013 73.7902 8.4965Z" fill="#F8BF00"/>
<path d="M24.1721 12.0943H29.2176C29.7029 12.0943 30.0956 11.7013 30.0956 11.2163C30.0956 10.7316 29.7029 10.3384 29.2176 10.3384H24.1721C23.6869 10.3384 23.2942 10.7314 23.2942 11.2163C23.2944 11.7013 23.687 12.0943 24.1721 12.0943Z" fill="#F8BF00"/>
<path d="M28.7555 13.9343L26.6137 15.2636C26.2014 15.5192 26.0754 16.0606 26.3308 16.4726C26.5888 16.8881 27.1322 17.0091 27.5398 16.7555L29.6816 15.4262C30.094 15.1705 30.2199 14.6292 29.9645 14.2172C29.7081 13.8055 29.1687 13.6775 28.7555 13.9343Z" fill="#F8BF00"/>
<path d="M26.6137 7.16744L28.7555 8.49676C29.1626 8.74989 29.7062 8.62969 29.9645 8.21387C30.2201 7.80201 30.094 7.26052 29.6816 7.00491L27.5398 5.67559C27.1283 5.41882 26.5873 5.54646 26.3308 5.95865C26.0754 6.37051 26.2014 6.91199 26.6137 7.16744Z" fill="#F8BF00"/>
<path d="M51.1839 7.34496H52.0864L52.5092 6.54762C53.4824 4.71203 54.3665 3.51608 55.3653 2.76272C56.3176 2.04447 57.4956 1.63867 59.2531 1.63867C62.9634 1.63867 65.8222 4.45729 65.8222 7.74686C65.8222 11.0329 64.0678 14.5009 61.105 18.2257C58.4088 21.6152 54.8726 25.0248 51.1834 28.5098C47.4944 25.0248 43.9581 21.6152 41.2619 18.2257C38.299 14.5009 36.5444 11.0329 36.5444 7.74686C36.5444 4.45729 39.4033 1.63867 43.1136 1.63867C44.8714 1.63867 46.0494 2.04449 47.0015 2.76269C48.0002 3.51603 48.8842 4.71195 49.8575 6.54762L50.2802 7.34496H51.1827H51.1839Z" stroke="#F8BF00" stroke-width="3"/>
</svg>
