<svg width="811" height="392" viewBox="0 0 811 392" fill="none" xmlns="http://www.w3.org/2000/svg">
<g clip-path="url(#clip0_76_211)">
<path fill-rule="evenodd" clip-rule="evenodd" d="M291.223 237.194L295.15 230.823C303.275 215.879 294.324 221.986 304.254 214.633C310.15 210.266 328.731 206.003 330.913 205.978C334.357 220.918 319.954 211.988 328.842 222.68C335.348 217.319 333.281 215.415 343.397 206.528C347.837 212.134 344.285 211.223 350.536 216.839L356.955 220.884C369.91 229.521 364.323 229.257 375.04 240.971L407.672 265.568C417.77 272.382 405.746 257.551 415.527 272.612C420.353 269.524 434.603 278.956 445.122 275.446C451.923 273.177 451.887 270.709 458.486 265.219L469.256 256.265L474.857 270.331C477.144 278.271 473.542 275.581 476.789 289.367C484.554 290.608 491.034 291.039 497.728 287.961C498.156 287.764 498.842 287.298 499.267 287.081C499.695 286.864 500.35 286.374 500.785 286.15C501.225 285.923 501.88 285.459 502.337 285.237C502.81 285.007 503.498 284.615 503.999 284.399L525.199 282.411C525.731 282.506 526.522 282.808 527.068 282.868L533.031 282.669C547.594 278.686 551.303 255.112 555.208 242.867C557.039 237.125 559.277 239.93 558.938 226.153C563.465 223.755 564.664 222.907 569.015 220.155C573.746 217.162 574.556 215.955 578.95 216.758C628.529 225.819 623.683 213.709 650.083 213.623C650.572 213.622 651.451 213.616 651.929 213.592C664.577 212.945 672.713 198.506 677.181 187.908C683.005 174.095 673.853 182.654 698.216 166.634C710.906 158.29 741.601 143.596 748.747 133.665L752.952 139.114C776.793 139.113 772.623 135.91 780.255 113.865L810.718 109.841C811.398 101.592 811.253 96.3285 805.572 89.4011L782.98 69.9318C764.722 62.2229 759.3 72.7553 743.472 58.7345C741.04 56.5798 739.612 55.4307 737.189 53.5478L725.648 35.6408C671.242 39.2984 700.16 26.4753 662.686 31.4273L630.684 31.1006C619.472 28.5018 613.965 27.5449 598.164 29.2061C569.638 32.2064 600.074 15.237 534.644 32.174C524.55 34.7874 526.627 34.3749 518.046 31.9562C517.227 31.7252 516.535 31.4975 515.649 31.2897C510.431 30.0657 510.175 30.4634 505.191 29.8841C488.955 27.9966 482.54 23.8951 479.915 42.219C470.781 40.9749 456.492 39.4651 448.189 37.8827L418.675 25.5323C410.375 23.4023 418.12 27.4352 410.639 23.2594C405.312 20.2862 406.071 17.5908 401.079 13.1888C398.928 11.2921 375.864 -2.80204 374.625 0.499364L354.914 6.10617C354.164 6.34554 352.059 7.40358 351.362 7.75266C345.763 10.5639 352.079 7.74418 346.679 10.7569C346.337 10.9477 339.736 14.0654 339.664 14.0962C332.675 17.0935 328.852 18.3253 322.163 19.8598C321.203 31.4557 318.634 42.8616 315.628 52.7731C314.177 57.5589 311.843 69.446 315.085 75.9911C319.003 83.8993 315.259 79.8124 318.837 79.203C291.539 61.2172 284.037 68.7331 277.956 65.6895C272.465 60.5175 275.947 60.1522 268.096 55.7865L231.911 44.0563C218.177 42.1673 225.778 43.1009 213.768 38.4371L194.13 37.6301C170.098 41.4985 170.243 31.8728 153.931 51.0818C153.592 51.4819 153.189 52.1939 152.827 52.5591C149.064 56.3534 144.165 56.5279 138.882 57.4941C140.086 61.7926 143.612 65.1203 140.406 68.6081C135.958 73.4495 127.106 82.6342 130.442 90.0737C135.806 96.2983 130.374 92.379 138.68 93.9391C145.21 95.1646 144.322 93.6904 146.568 93.9166C150.921 94.356 153.269 96.7517 155.746 100.985C145.267 101.54 146.499 105.384 137.528 108.154C126.721 111.49 128.976 99.4201 125.363 120.07C108.026 119.091 109.1 129.871 98.3221 139.702L88.7235 145.574C74.693 152.666 81.7756 143.226 75.8347 158.199C81.1688 168.34 74.8602 159.267 83.3607 165.009L88.7637 167.955C95.2209 172.178 89.4386 169.618 94.6188 172.594C109.324 181.043 119.448 156.324 117.063 190.892C117.708 191.284 118.809 190.976 119.096 191.886L126.74 196.334C135.117 201.2 147.319 199.626 153.059 200.668L159.666 203.176C162.625 204.217 166.596 205.325 170.774 206.631L173.605 188.133C188.333 192.122 182.754 187.902 190.496 178.547C191.012 178.763 191.756 178.739 191.924 179.427C193.079 184.137 198.114 178.811 198.529 199.065C198.543 199.77 198.447 200.907 198.701 201.777C210.112 206.721 215.631 209.433 220.544 204.501C220.752 213.284 220.207 211.615 217.813 220.847C231.555 218.847 233.291 214.524 238.644 217.651C244.884 221.295 244.158 226.436 250.996 231.516C261.075 239.003 277.716 237.536 291.223 237.194L291.223 237.194Z" fill="#F9B118"/>
<path fill-rule="evenodd" clip-rule="evenodd" d="M291.223 237.194C286.322 240.573 279.146 240.661 270.665 246.233C262.041 251.9 267.998 247.284 261.692 253.976L255.382 260.956C255.04 261.315 254.272 262.075 253.989 262.367C253.704 262.663 253.085 263.355 252.578 263.791C243.971 256.293 240.941 255.335 233.719 253.845C237.589 263.289 239.248 264.208 235.558 274.173C233.257 270.179 227.464 267.549 220.53 265.544C209.449 274.749 204.981 276.137 204.162 284.608C213.786 285.811 215.536 284.815 219.721 292.164L225.383 308.68C228.155 317.396 225.806 314.255 234.838 323.376L240.159 328.691C242.977 332.005 242.676 331.245 244.316 335.016C231.263 343.667 221.975 347.493 202.799 341.906C182.279 335.927 176.362 326.253 165.31 349.206C180.721 355.528 164.749 350.588 171.079 360.825C175.671 368.252 177.831 365.382 188.21 364.375C186.826 376.558 184.742 370.972 186.535 383.063C205.11 379.389 192.424 378.966 206.878 375.446C214.486 390 213.833 378.111 218.213 392C238.562 378.079 217.425 373.866 272.287 377.121C292.687 378.331 296.939 377.522 306.211 372.103C324.454 361.441 348.504 376.448 350.124 351.6C350.592 344.428 345.603 339.801 342.654 335.288C356.519 317.129 347.857 306.351 373.058 306.221C397.681 306.093 389.542 292.766 408.393 285.671C418.651 281.811 424.535 290.166 418.193 277.88C415.337 272.349 416.161 277.585 415.527 272.612C405.747 257.551 417.77 272.382 407.672 265.568L375.04 240.971C364.323 229.257 369.911 229.52 356.955 220.884L350.536 216.839C344.285 211.223 347.837 212.134 343.397 206.528C333.281 215.415 335.348 217.318 328.842 222.679C319.954 211.988 334.357 220.918 330.913 205.978C328.731 206.003 310.15 210.266 304.255 214.632C294.325 221.986 303.275 215.879 295.15 230.822L291.223 237.194L291.223 237.194Z" fill="#F9C007"/>
<path fill-rule="evenodd" clip-rule="evenodd" d="M165.31 349.206C176.362 326.253 182.279 335.927 202.799 341.906C221.975 347.494 231.263 343.667 244.316 335.016C242.676 331.245 242.977 332.005 240.159 328.691L234.838 323.376C225.806 314.255 228.155 317.396 225.383 308.68L219.721 292.164C215.536 284.815 213.786 285.811 204.162 284.609C196.934 280.994 197.112 285.658 195.405 286.613L189.727 290.584C189.371 290.814 188.471 291.137 187.766 291.71C186.999 280.622 187.148 286.413 185.022 282.165C166.72 285.632 177.634 286.16 164.435 278.894C144.998 268.194 135.621 276.637 127.859 283.71C106.478 303.194 103.188 285.473 100.408 308.057C104.564 303.353 99.2643 300.843 85.7748 294.364C52.6886 278.474 60.4864 277.656 32.7552 288.164C25.5024 290.913 21.2581 288.414 17.903 300.615C14.931 311.423 18.2133 305.233 18.4966 305.333L13.0085 297.754C-8.45896 313.14 3.43058 324.224 2.11487 351.621C14.3218 351.384 15.6925 351.963 26.3074 349.328C43.5931 345.04 28.5766 349.171 44.5574 351.744L52.6956 352.197C68.4233 352.003 53.2181 349.097 65.7454 350.917C71.1686 351.705 73.3992 354.947 80.4669 354.013C83.4226 353.622 90.831 349.495 94.4384 349.796C96.9794 350.007 101.766 352.918 105.263 357.04C112.483 365.546 105.302 353.842 108.599 370.692C133.346 370.558 129.431 369.618 139.459 361.819C145.253 357.314 149.9 362.36 160.44 354.613C167.936 349.104 163.218 352.456 165.31 349.205V349.206Z" fill="#F9C007"/>
<path d="M147.364 107.538L236.954 295.775" stroke="#FEFEFE" stroke-width="1.33348" stroke-miterlimit="10"/>
<path d="M253.204 298.49L378.631 209.35" stroke="#FEFEFE" stroke-width="1.33348" stroke-miterlimit="10"/>
<path d="M247.788 295.775L285.29 227.9" stroke="#FEFEFE" stroke-width="1.33348" stroke-miterlimit="10"/>
<path d="M240.287 291.703L234.87 145.096" stroke="#FEFEFE" stroke-width="1.33348" stroke-miterlimit="10"/>
<path d="M158.05 108.634L280.707 212.515" stroke="#FEFEFE" stroke-width="1.33348" stroke-miterlimit="10"/>
<path d="M240.287 142.381L285.291 209.35" stroke="#FEFEFE" stroke-width="1.33348" stroke-miterlimit="10"/>
<path d="M155.281 98.9404L223.619 128.805" stroke="#FEFEFE" stroke-width="1.33348" stroke-miterlimit="10"/>
<path d="M155.281 95.7729H390.714" stroke="#FEFEFE" stroke-width="1.33348" stroke-miterlimit="10"/>
<path d="M245.288 131.52L394.048 103.466" stroke="#FEFEFE" stroke-width="1.33348" stroke-miterlimit="10"/>
<path d="M299.042 209.35L394.048 110.253" stroke="#FEFEFE" stroke-width="1.33348" stroke-miterlimit="10"/>
<path d="M301.958 218.4L376.547 201.656" stroke="#FEFEFE" stroke-width="1.33348" stroke-miterlimit="10"/>
<path d="M245.288 137.402L378.631 197.585" stroke="#FEFEFE" stroke-width="1.33348" stroke-miterlimit="10"/>
<path d="M396.965 193.511L507.388 90.3428" stroke="#FEFEFE" stroke-width="1.33348" stroke-miterlimit="10"/>
<path d="M412.798 95.7728L507.388 82.6504" stroke="#FEFEFE" stroke-width="1.33348" stroke-miterlimit="10"/>
<path d="M412.798 101.655L622.396 139.666" stroke="#FEFEFE" stroke-width="1.33348" stroke-miterlimit="10"/>
<path d="M399.881 113.873L390.714 189.439" stroke="#FEFEFE" stroke-width="1.33348" stroke-miterlimit="10"/>
<path d="M412.798 107.538L519.473 184.461" stroke="#FEFEFE" stroke-width="1.33348" stroke-miterlimit="10"/>
<path d="M396.965 201.656L517.599 195.774" stroke="#FEFEFE" stroke-width="1.33348" stroke-miterlimit="10"/>
<path d="M396.965 205.276L659.066 280.843" stroke="#FEFEFE" stroke-width="1.33348" stroke-miterlimit="10"/>
<path d="M537.808 198.715L661.149 276.318" stroke="#FEFEFE" stroke-width="1.33348" stroke-miterlimit="10"/>
<path d="M528.017 84.9136L622.396 131.52" stroke="#FEFEFE" stroke-width="1.33348" stroke-miterlimit="10"/>
<path d="M537.808 186.725L622.396 142.381" stroke="#FEFEFE" stroke-width="1.33348" stroke-miterlimit="10"/>
<path d="M517.599 93.0581L528.017 179.485" stroke="#FEFEFE" stroke-width="1.33348" stroke-miterlimit="10"/>
<path d="M635.73 154.145L666.149 269.982" stroke="#FEFEFE" stroke-width="1.33348" stroke-miterlimit="10"/>
<path d="M402.351 78.645C391.117 78.645 382.011 87.7318 382.011 98.9407C382.011 110.149 391.117 119.236 402.351 119.236C413.584 119.236 422.69 110.149 422.69 98.9407C422.69 87.7319 413.584 78.645 402.351 78.645Z" fill="#F1F2F2" stroke="#FEFEFE" stroke-width="1.33348" stroke-miterlimit="22.9256"/>
<path d="M634.045 117.107C622.812 117.107 613.707 126.193 613.707 137.401C613.707 148.61 622.812 157.698 634.045 157.698C645.278 157.698 654.386 148.61 654.386 137.401C654.386 126.193 645.278 117.107 634.045 117.107Z" fill="#F1F2F2" stroke="#FEFEFE" stroke-width="1.33348" stroke-miterlimit="22.9256"/>
<path d="M528.014 173.216C516.78 173.216 507.675 182.302 507.675 193.51C507.675 204.719 516.78 213.807 528.014 213.807C539.246 213.807 548.354 204.719 548.354 193.51C548.354 182.302 539.246 173.216 528.014 173.216Z" fill="#F1F2F2" stroke="#FEFEFE" stroke-width="1.33348" stroke-miterlimit="22.9256"/>
<path d="M387.35 181.361C376.116 181.361 367.01 190.448 367.01 201.656C367.01 212.865 376.116 221.952 387.35 221.952C398.583 221.952 407.689 212.865 407.689 201.656C407.689 190.448 398.583 181.361 387.35 181.361Z" fill="#F1F2F2" stroke="#FEFEFE" stroke-width="1.33348" stroke-miterlimit="22.9256"/>
<path d="M242.45 280.842C231.217 280.842 222.111 289.928 222.111 301.137C222.111 312.345 231.217 321.432 242.45 321.432C253.683 321.432 262.789 312.345 262.789 301.137C262.789 289.928 253.683 280.842 242.45 280.842Z" fill="#F1F2F2" stroke="#FEFEFE" stroke-width="1.33348" stroke-miterlimit="22.9256"/>
<path d="M290.181 198.104C278.948 198.104 269.842 207.191 269.842 218.399C269.842 229.608 278.948 238.695 290.181 238.695C301.415 238.695 310.521 229.608 310.521 218.399C310.521 207.191 301.415 198.104 290.181 198.104Z" fill="#F1F2F2" stroke="#FEFEFE" stroke-width="1.33348" stroke-miterlimit="22.9256"/>
<path d="M234.87 111.226C223.637 111.226 214.531 120.312 214.531 131.52C214.531 142.729 223.637 151.815 234.87 151.815C246.103 151.815 255.209 142.729 255.209 131.52C255.209 120.312 246.103 111.226 234.87 111.226Z" fill="#F1F2F2" stroke="#FEFEFE" stroke-width="1.33348" stroke-miterlimit="22.9256"/>
<path d="M147.364 75.4775C136.131 75.4775 127.025 84.5637 127.025 95.7726C127.025 106.981 136.131 116.068 147.364 116.068C158.597 116.068 167.703 106.982 167.703 95.7726C167.703 84.5638 158.597 75.4775 147.364 75.4775Z" fill="#F1F2F2" stroke="#FEFEFE" stroke-width="1.33348" stroke-miterlimit="22.9256"/>
<path d="M517.597 61.0645C506.363 61.0645 497.258 70.1512 497.258 81.3601C497.258 92.5687 506.363 101.656 517.597 101.656C528.829 101.656 537.937 92.5687 537.937 81.3601C537.937 70.1513 528.83 61.0645 517.597 61.0645Z" fill="#F1F2F2" stroke="#FEFEFE" stroke-width="1.33348" stroke-miterlimit="22.9256"/>
<path d="M663.634 258.085C652.401 258.085 643.296 267.172 643.296 278.381C643.296 289.59 652.401 298.677 663.634 298.677C674.867 298.677 683.975 289.59 683.975 278.381C683.975 267.172 674.867 258.085 663.634 258.085Z" fill="#F1F2F2" stroke="#FEFEFE" stroke-width="1.33348" stroke-miterlimit="22.9256"/>
<path d="M644.161 129.678V145.098C644.161 145.318 644.131 145.529 644.076 145.729C643.854 146.543 643.206 147.185 642.388 147.4C642.192 147.453 641.987 147.481 641.773 147.481H626.319C625.001 147.481 623.931 146.413 623.931 145.098V129.678C623.931 128.363 625.001 127.295 626.319 127.295H641.773C643.091 127.295 644.161 128.363 644.161 129.678L644.161 129.678Z" fill="#FCC020"/>
<path d="M640.073 137.292V137.322C640.07 137.576 640.028 137.822 639.953 138.053C639.926 138.135 639.895 138.216 639.859 138.295V138.295C639.474 139.152 638.613 139.748 637.612 139.748C637.489 139.748 637.369 139.739 637.251 139.722C636.072 139.549 635.165 138.543 635.15 137.322V137.292C635.15 136.058 636.063 135.036 637.251 134.863C637.369 134.845 637.489 134.836 637.612 134.836C638.613 134.836 639.474 135.433 639.859 136.29V136.29C639.895 136.369 639.926 136.45 639.953 136.532C640.031 136.772 640.073 137.027 640.073 137.292Z" fill="#1F1F1F"/>
<path d="M639.953 140.062V140.064C639.279 141.014 638.343 141.766 637.251 142.216C636.521 142.517 635.72 142.684 634.88 142.684C634.821 142.684 634.762 142.683 634.704 142.681C634.652 142.68 634.601 142.677 634.55 142.675V142.684C633.565 142.684 632.643 142.421 631.848 141.962C631.406 141.707 631.004 141.392 630.653 141.027L630.649 141.023C630.357 140.719 630.101 140.382 629.887 140.017C629.421 139.226 629.152 138.305 629.147 137.322L629.147 137.292V130.834C629.225 130.827 629.306 130.823 629.387 130.823C630.067 130.823 630.682 131.098 631.127 131.542C631.246 131.66 631.352 131.79 631.444 131.93C631.591 132.153 631.704 132.402 631.772 132.668C631.822 132.863 631.848 133.068 631.848 133.279V136.124C631.848 136.537 631.898 136.938 631.994 137.322C632.258 138.401 632.875 139.342 633.714 140.017C633.973 140.227 634.253 140.41 634.55 140.564C635.242 140.923 636.027 141.126 636.861 141.126C636.993 141.126 637.122 141.121 637.251 141.111C637.743 141.073 638.215 140.965 638.657 140.796C639.127 140.616 639.563 140.367 639.953 140.062L639.953 140.062Z" fill="#1F1F1F"/>
<path d="M640.635 145.744H642.404V143.979H640.635V145.744Z" fill="#FEFEFE"/>
<path d="M644.076 145.729C643.853 146.543 643.206 147.185 642.388 147.4V145.729H644.076Z" fill="#FEFEFE"/>
<path d="M637.095 145.744H638.865V143.979H637.095V145.744Z" fill="#FEFEFE"/>
<path d="M635.326 147.509H637.096V145.744H635.326V147.509Z" fill="#FEFEFE"/>
<path d="M638.865 147.509H640.635V145.744H638.865V147.509Z" fill="#FEFEFE"/>
<path d="M630.051 145.744H628.282V147.509H630.051V145.744Z" fill="#FEFEFE"/>
<path d="M628.297 143.994H626.528V145.76H628.297V143.994Z" fill="#FEFEFE"/>
<path d="M633.59 145.744H631.821V147.509H633.59V145.744Z" fill="#FEFEFE"/>
<path d="M635.36 143.979H633.59V145.744H635.36V143.979Z" fill="#FEFEFE"/>
<path d="M631.821 143.979H630.051V145.744H631.821V143.979Z" fill="#FEFEFE"/>
<path d="M673.75 270.656V286.077C673.75 286.296 673.721 286.507 673.665 286.708C673.443 287.522 672.796 288.164 671.978 288.379C671.781 288.432 671.576 288.46 671.362 288.46H655.909C654.591 288.46 653.521 287.392 653.521 286.077V270.656C653.521 269.341 654.591 268.273 655.909 268.273H671.362C672.68 268.273 673.75 269.341 673.75 270.656L673.75 270.656Z" fill="#FCC020"/>
<path d="M669.662 278.271V278.3C669.659 278.555 669.617 278.8 669.542 279.031C669.515 279.114 669.484 279.195 669.448 279.273V279.274C669.063 280.13 668.202 280.727 667.201 280.727C667.078 280.727 666.958 280.718 666.84 280.701C665.661 280.528 664.754 279.521 664.739 278.3V278.271C664.739 277.037 665.652 276.015 666.84 275.841C666.958 275.824 667.078 275.815 667.201 275.815C668.202 275.815 669.063 276.412 669.448 277.268V277.269C669.484 277.347 669.515 277.428 669.542 277.511C669.62 277.75 669.662 278.006 669.662 278.271Z" fill="#1F1F1F"/>
<path d="M669.542 281.04V281.043C668.868 281.993 667.933 282.744 666.841 283.194C666.11 283.496 665.309 283.662 664.469 283.662C664.411 283.662 664.352 283.662 664.294 283.66C664.242 283.658 664.191 283.656 664.139 283.654V283.662C663.155 283.662 662.232 283.4 661.438 282.941C660.996 282.686 660.594 282.37 660.243 282.005L660.238 282.001C659.946 281.698 659.69 281.361 659.476 280.996C659.011 280.204 658.742 279.284 658.737 278.3L658.736 278.271V271.813C658.815 271.805 658.895 271.801 658.977 271.801C659.656 271.801 660.271 272.076 660.717 272.521C660.835 272.639 660.941 272.769 661.034 272.909C661.181 273.132 661.293 273.38 661.361 273.646C661.411 273.842 661.438 274.046 661.438 274.257V277.103C661.438 277.515 661.488 277.917 661.583 278.3C661.848 279.379 662.465 280.32 663.304 280.996C663.562 281.205 663.842 281.388 664.139 281.542C664.831 281.902 665.617 282.105 666.451 282.105C666.582 282.105 666.712 282.1 666.841 282.09C667.333 282.052 667.804 281.943 668.246 281.774C668.717 281.594 669.153 281.346 669.542 281.04L669.542 281.04Z" fill="#1F1F1F"/>
<path d="M670.224 286.723H671.993V284.957H670.224V286.723Z" fill="#FEFEFE"/>
<path d="M673.665 286.708C673.443 287.522 672.796 288.163 671.978 288.378V286.708H673.665Z" fill="#FEFEFE"/>
<path d="M666.685 286.723H668.454V284.957H666.685V286.723Z" fill="#FEFEFE"/>
<path d="M664.916 288.488H666.685V286.723H664.916V288.488Z" fill="#FEFEFE"/>
<path d="M668.454 288.488H670.224V286.723H668.454V288.488Z" fill="#FEFEFE"/>
<path d="M659.64 286.723H657.871V288.488H659.64V286.723Z" fill="#FEFEFE"/>
<path d="M657.887 284.973H656.117V286.738H657.887V284.973Z" fill="#FEFEFE"/>
<path d="M663.179 286.723H661.41V288.488H663.179V286.723Z" fill="#FEFEFE"/>
<path d="M664.949 284.957H663.179V286.723H664.949V284.957Z" fill="#FEFEFE"/>
<path d="M661.41 284.957H659.64V286.723H661.41V284.957Z" fill="#FEFEFE"/>
<path d="M538.13 185.787V201.207C538.13 201.427 538.1 201.638 538.044 201.838C537.822 202.652 537.175 203.294 536.357 203.509C536.16 203.562 535.955 203.59 535.742 203.59H520.288C518.97 203.59 517.9 202.522 517.9 201.207V185.787C517.9 184.472 518.97 183.404 520.288 183.404H535.742C537.059 183.404 538.13 184.472 538.13 185.787L538.13 185.787Z" fill="#FCC020"/>
<path d="M534.041 193.401V193.43C534.038 193.685 533.996 193.931 533.921 194.161C533.894 194.244 533.863 194.325 533.828 194.403V194.404C533.443 195.26 532.582 195.857 531.58 195.857C531.458 195.857 531.338 195.848 531.22 195.831C530.041 195.658 529.133 194.651 529.119 193.43V193.401C529.119 192.167 530.031 191.145 531.22 190.971C531.338 190.954 531.458 190.945 531.58 190.945C532.582 190.945 533.443 191.542 533.828 192.399V192.399C533.863 192.478 533.894 192.559 533.921 192.641C533.999 192.881 534.041 193.136 534.041 193.401V193.401Z" fill="#1F1F1F"/>
<path d="M533.921 196.17V196.173C533.247 197.123 532.312 197.875 531.22 198.325C530.489 198.626 529.688 198.793 528.848 198.793C528.79 198.793 528.731 198.792 528.673 198.79C528.621 198.789 528.57 198.786 528.518 198.784V198.793C527.534 198.793 526.611 198.53 525.817 198.071C525.375 197.816 524.973 197.5 524.622 197.136L524.617 197.131C524.326 196.828 524.069 196.491 523.856 196.126C523.39 195.335 523.121 194.414 523.116 193.43L523.115 193.401V186.943C523.194 186.936 523.274 186.932 523.355 186.932C524.035 186.932 524.65 187.207 525.096 187.651C525.214 187.769 525.32 187.899 525.413 188.039C525.56 188.262 525.672 188.511 525.74 188.777C525.79 188.972 525.817 189.177 525.817 189.387V192.233C525.817 192.646 525.867 193.047 525.962 193.43C526.227 194.509 526.844 195.45 527.683 196.126C527.941 196.335 528.221 196.518 528.518 196.672C529.21 197.032 529.996 197.235 530.83 197.235C530.961 197.235 531.091 197.23 531.22 197.22C531.712 197.182 532.183 197.074 532.625 196.904C533.096 196.725 533.532 196.476 533.921 196.17L533.921 196.17Z" fill="#1F1F1F"/>
<path d="M534.603 201.853H536.373V200.087H534.603V201.853Z" fill="#FEFEFE"/>
<path d="M538.044 201.838C537.822 202.652 537.175 203.294 536.357 203.509V201.838H538.044Z" fill="#FEFEFE"/>
<path d="M531.064 201.853H532.834V200.087H531.064V201.853Z" fill="#FEFEFE"/>
<path d="M529.295 203.618H531.064V201.853H529.295V203.618Z" fill="#FEFEFE"/>
<path d="M532.834 203.618H534.603V201.853H532.834V203.618Z" fill="#FEFEFE"/>
<path d="M524.02 201.853H522.25V203.618H524.02V201.853Z" fill="#FEFEFE"/>
<path d="M522.266 200.103H520.496V201.868H522.266V200.103Z" fill="#FEFEFE"/>
<path d="M527.558 201.853H525.789V203.618H527.558V201.853Z" fill="#FEFEFE"/>
<path d="M529.328 200.087H527.559V201.853H529.328V200.087Z" fill="#FEFEFE"/>
<path d="M525.789 200.087H524.02V201.853H525.789V200.087Z" fill="#FEFEFE"/>
<path d="M527.713 73.6352V89.0556C527.713 89.2752 527.683 89.4863 527.627 89.6865C527.405 90.5007 526.758 91.1424 525.94 91.3576C525.743 91.4109 525.538 91.4385 525.325 91.4385H509.871C508.553 91.4385 507.483 90.3707 507.483 89.0557V73.6353C507.483 72.3202 508.553 71.2524 509.871 71.2524H525.325C526.642 71.2524 527.713 72.3202 527.713 73.6353L527.713 73.6352Z" fill="#FCC020"/>
<path d="M523.624 81.2498V81.2791C523.621 81.5337 523.579 81.7793 523.504 82.01C523.477 82.0925 523.446 82.1736 523.411 82.252V82.2524C523.026 83.109 522.164 83.7057 521.163 83.7057C521.04 83.7057 520.921 83.6969 520.803 83.6795C519.624 83.5068 518.716 82.5 518.702 81.2791V81.2498C518.702 80.0159 519.614 78.9939 520.803 78.82C520.921 78.8026 521.04 78.7939 521.163 78.7939C522.164 78.7939 523.026 79.3905 523.411 80.2472V80.2477C523.446 80.3262 523.477 80.4072 523.504 80.4896C523.582 80.7295 523.624 80.9846 523.624 81.2498V81.2498Z" fill="#1F1F1F"/>
<path d="M523.504 84.0191V84.0215C522.83 84.9718 521.895 85.7234 520.803 86.1732C520.072 86.4751 519.271 86.6412 518.431 86.6412C518.373 86.6412 518.314 86.6405 518.256 86.6388C518.204 86.6375 518.153 86.635 518.101 86.6328V86.6412C517.117 86.6412 516.194 86.3788 515.4 85.9198C514.958 85.6646 514.556 85.349 514.205 84.9842L514.2 84.9801C513.908 84.6768 513.652 84.3396 513.438 83.9747C512.973 83.1834 512.704 82.2627 512.699 81.2791L512.698 81.2497V74.7917C512.777 74.7845 512.857 74.7803 512.939 74.7803C513.618 74.7803 514.233 75.0552 514.679 75.4996C514.797 75.6177 514.903 75.7476 514.996 75.8879C515.143 76.1107 515.255 76.3593 515.323 76.6253C515.373 76.8204 515.4 77.0255 515.4 77.2361V80.0817C515.4 80.4944 515.45 80.8956 515.545 81.2791C515.81 82.3579 516.427 83.299 517.266 83.9746C517.525 84.1839 517.804 84.367 518.101 84.5211C518.793 84.8806 519.579 85.0835 520.413 85.0835C520.544 85.0835 520.674 85.0788 520.803 85.0686C521.295 85.0308 521.766 84.9223 522.208 84.7529C522.679 84.5732 523.115 84.3245 523.504 84.0189L523.504 84.0191Z" fill="#1F1F1F"/>
<path d="M524.186 89.7016H525.956V87.936H524.186V89.7016Z" fill="#FEFEFE"/>
<path d="M527.627 89.6865C527.405 90.5007 526.758 91.1422 525.94 91.3576V89.6865H527.627Z" fill="#FEFEFE"/>
<path d="M520.647 89.7016H522.417V87.936H520.647V89.7016Z" fill="#FEFEFE"/>
<path d="M518.878 91.4669H520.647V89.7012H518.878V91.4669Z" fill="#FEFEFE"/>
<path d="M522.417 91.4669H524.186V89.7012H522.417V91.4669Z" fill="#FEFEFE"/>
<path d="M513.603 89.7012H511.833V91.4669H513.603V89.7012Z" fill="#FEFEFE"/>
<path d="M511.849 87.9517H510.079V89.7173H511.849V87.9517Z" fill="#FEFEFE"/>
<path d="M517.141 89.7012H515.372V91.4669H517.141V89.7012Z" fill="#FEFEFE"/>
<path d="M518.911 87.936H517.142V89.7016H518.911V87.936Z" fill="#FEFEFE"/>
<path d="M515.372 87.936H513.603V89.7016H515.372V87.936Z" fill="#FEFEFE"/>
<path d="M412.466 91.216V106.636C412.466 106.856 412.436 107.067 412.381 107.267C412.158 108.081 411.511 108.723 410.693 108.938C410.496 108.992 410.291 109.019 410.078 109.019H394.624C393.306 109.019 392.236 107.951 392.236 106.636V91.216C392.236 89.9008 393.306 88.833 394.624 88.833H410.078C411.396 88.833 412.466 89.9008 412.466 91.216H412.466Z" fill="#FCC020"/>
<path d="M408.378 98.8303V98.8596C408.374 99.1144 408.333 99.3598 408.257 99.5907C408.231 99.6731 408.199 99.7541 408.164 99.8326V99.8331C407.779 100.69 406.918 101.286 405.916 101.286C405.794 101.286 405.674 101.278 405.556 101.26C404.377 101.087 403.469 100.081 403.455 98.8597V98.8304C403.455 97.5965 404.367 96.5745 405.556 96.4007C405.674 96.3833 405.794 96.3745 405.916 96.3745C406.918 96.3745 407.779 96.9712 408.164 97.8278V97.8282C408.199 97.9067 408.231 97.9877 408.257 98.0702C408.335 98.31 408.378 98.5652 408.378 98.8304V98.8303Z" fill="#1F1F1F"/>
<path d="M408.258 101.6V101.602C407.583 102.552 406.648 103.304 405.556 103.754C404.825 104.056 404.025 104.222 403.185 104.222C403.126 104.222 403.067 104.221 403.009 104.219C402.957 104.218 402.906 104.216 402.855 104.213V104.222C401.87 104.222 400.947 103.959 400.153 103.5C399.711 103.245 399.309 102.93 398.958 102.565L398.954 102.561C398.662 102.257 398.406 101.92 398.192 101.555C397.726 100.764 397.457 99.8432 397.452 98.8597L397.452 98.8303V92.3723C397.53 92.365 397.611 92.3608 397.692 92.3608C398.371 92.3608 398.987 92.6358 399.432 93.0801C399.551 93.1983 399.657 93.3281 399.749 93.4685C399.896 93.6913 400.009 93.9399 400.076 94.2059C400.127 94.401 400.153 94.6061 400.153 94.8167V97.6622C400.153 98.075 400.203 98.4761 400.299 98.8596C400.563 99.9384 401.18 100.88 402.019 101.555C402.278 101.764 402.558 101.948 402.855 102.102C403.546 102.461 404.332 102.664 405.166 102.664C405.298 102.664 405.427 102.659 405.556 102.649C406.048 102.611 406.52 102.503 406.962 102.333C407.432 102.154 407.868 101.905 408.258 101.599L408.258 101.6Z" fill="#1F1F1F"/>
<path d="M408.939 107.282H410.709V105.517H408.939V107.282Z" fill="#FEFEFE"/>
<path d="M412.381 107.267C412.158 108.081 411.511 108.723 410.693 108.938V107.267H412.381Z" fill="#FEFEFE"/>
<path d="M405.4 107.282H407.17V105.517H405.4V107.282Z" fill="#FEFEFE"/>
<path d="M403.631 109.048H405.4V107.282H403.631V109.048Z" fill="#FEFEFE"/>
<path d="M407.17 109.048H408.939V107.282H407.17V109.048Z" fill="#FEFEFE"/>
<path d="M398.356 107.282H396.586V109.048H398.356V107.282Z" fill="#FEFEFE"/>
<path d="M396.602 105.532H394.833V107.298H396.602V105.532Z" fill="#FEFEFE"/>
<path d="M401.895 107.282H400.125V109.048H401.895V107.282Z" fill="#FEFEFE"/>
<path d="M403.664 105.517H401.895V107.282H403.664V105.517Z" fill="#FEFEFE"/>
<path d="M400.125 105.517H398.356V107.282H400.125V105.517Z" fill="#FEFEFE"/>
<path d="M397.464 193.932V209.352C397.464 209.572 397.435 209.783 397.379 209.983C397.157 210.798 396.51 211.439 395.691 211.654C395.495 211.708 395.29 211.735 395.076 211.735H379.622C378.305 211.735 377.234 210.668 377.234 209.353V193.932C377.234 192.617 378.305 191.549 379.622 191.549H395.076C396.394 191.549 397.464 192.617 397.464 193.932L397.464 193.932Z" fill="#FCC020"/>
<path d="M393.376 201.547V201.576C393.373 201.831 393.331 202.076 393.256 202.307C393.229 202.389 393.198 202.47 393.163 202.549V202.549C392.778 203.406 391.916 204.003 390.915 204.003C390.792 204.003 390.673 203.994 390.555 203.976C389.376 203.804 388.468 202.797 388.454 201.576V201.547C388.454 200.313 389.366 199.291 390.555 199.117C390.673 199.1 390.792 199.091 390.915 199.091C391.916 199.091 392.778 199.687 393.163 200.544V200.545C393.198 200.623 393.229 200.704 393.256 200.787C393.334 201.026 393.376 201.281 393.376 201.547V201.547Z" fill="#1F1F1F"/>
<path d="M393.256 204.316V204.318C392.582 205.269 391.647 206.02 390.555 206.47C389.824 206.772 389.023 206.938 388.183 206.938C388.125 206.938 388.066 206.937 388.008 206.936C387.956 206.934 387.905 206.932 387.853 206.93V206.938C386.869 206.938 385.946 206.676 385.152 206.217C384.71 205.962 384.308 205.646 383.957 205.281L383.952 205.277C383.66 204.974 383.404 204.636 383.19 204.272C382.725 203.48 382.456 202.56 382.451 201.576L382.45 201.547V195.089C382.529 195.081 382.609 195.077 382.69 195.077C383.37 195.077 383.985 195.352 384.431 195.796C384.549 195.915 384.655 196.044 384.748 196.185C384.895 196.408 385.007 196.656 385.075 196.922C385.125 197.117 385.152 197.322 385.152 197.533V200.379C385.152 200.791 385.202 201.192 385.297 201.576C385.562 202.655 386.178 203.596 387.018 204.271C387.276 204.481 387.556 204.664 387.853 204.818C388.545 205.177 389.331 205.38 390.165 205.38C390.296 205.38 390.426 205.376 390.555 205.365C391.047 205.328 391.518 205.219 391.96 205.05C392.431 204.87 392.867 204.621 393.256 204.316L393.256 204.316Z" fill="#1F1F1F"/>
<path d="M393.938 209.998H395.707V208.232H393.938V209.998Z" fill="#FEFEFE"/>
<path d="M397.379 209.983C397.157 210.798 396.51 211.439 395.692 211.654V209.983H397.379Z" fill="#FEFEFE"/>
<path d="M390.399 209.998H392.168V208.232H390.399V209.998Z" fill="#FEFEFE"/>
<path d="M388.63 211.764H390.399V209.998H388.63V211.764Z" fill="#FEFEFE"/>
<path d="M392.168 211.764H393.938V209.998H392.168V211.764Z" fill="#FEFEFE"/>
<path d="M383.354 209.998H381.585V211.764H383.354V209.998Z" fill="#FEFEFE"/>
<path d="M381.601 208.249H379.831V210.014H381.601V208.249Z" fill="#FEFEFE"/>
<path d="M386.893 209.998H385.124V211.764H386.893V209.998Z" fill="#FEFEFE"/>
<path d="M388.663 208.232H386.893V209.998H388.663V208.232Z" fill="#FEFEFE"/>
<path d="M385.124 208.232H383.354V209.998H385.124V208.232Z" fill="#FEFEFE"/>
<path d="M300.296 210.675V226.095C300.296 226.315 300.266 226.526 300.211 226.726C299.989 227.54 299.341 228.182 298.523 228.397C298.327 228.45 298.122 228.478 297.908 228.478H282.454C281.137 228.478 280.066 227.41 280.066 226.095V210.675C280.066 209.36 281.137 208.292 282.454 208.292H297.908C299.226 208.292 300.296 209.36 300.296 210.675H300.296Z" fill="#FCC020"/>
<path d="M296.208 218.289V218.319C296.205 218.573 296.163 218.819 296.088 219.05C296.061 219.132 296.03 219.213 295.995 219.292V219.292C295.61 220.149 294.748 220.745 293.747 220.745C293.624 220.745 293.504 220.736 293.387 220.719C292.208 220.546 291.3 219.54 291.285 218.319V218.289C291.285 217.055 292.198 216.033 293.387 215.86C293.504 215.842 293.624 215.833 293.747 215.833C294.748 215.833 295.61 216.43 295.995 217.287V217.287C296.03 217.366 296.061 217.447 296.088 217.529C296.166 217.769 296.208 218.024 296.208 218.289V218.289Z" fill="#1F1F1F"/>
<path d="M296.088 221.059V221.061C295.414 222.011 294.479 222.763 293.386 223.213C292.656 223.515 291.855 223.681 291.015 223.681C290.957 223.681 290.898 223.68 290.84 223.678C290.788 223.677 290.737 223.675 290.685 223.672V223.681C289.701 223.681 288.778 223.418 287.984 222.959C287.542 222.704 287.14 222.389 286.788 222.024L286.784 222.02C286.492 221.716 286.236 221.379 286.022 221.014C285.557 220.223 285.288 219.302 285.283 218.319L285.282 218.289V211.831C285.361 211.824 285.441 211.82 285.522 211.82C286.202 211.82 286.817 212.095 287.263 212.539C287.381 212.657 287.487 212.787 287.58 212.927C287.727 213.15 287.839 213.399 287.907 213.665C287.957 213.86 287.984 214.065 287.984 214.276V217.121C287.984 217.534 288.033 217.935 288.129 218.319C288.394 219.397 289.01 220.339 289.849 221.014C290.108 221.223 290.388 221.407 290.685 221.561C291.377 221.92 292.163 222.123 292.996 222.123C293.128 222.123 293.258 222.118 293.387 222.108C293.878 222.07 294.35 221.962 294.792 221.792C295.263 221.613 295.699 221.364 296.088 221.058L296.088 221.059Z" fill="#1F1F1F"/>
<path d="M296.77 226.741H298.54V224.976H296.77V226.741Z" fill="#FEFEFE"/>
<path d="M300.211 226.726C299.989 227.54 299.342 228.182 298.524 228.397V226.726H300.211Z" fill="#FEFEFE"/>
<path d="M293.231 226.741H295V224.976H293.231V226.741Z" fill="#FEFEFE"/>
<path d="M291.462 228.507H293.231V226.741H291.462V228.507Z" fill="#FEFEFE"/>
<path d="M295 228.507H296.77V226.741H295V228.507Z" fill="#FEFEFE"/>
<path d="M286.187 226.741H284.417V228.507H286.187V226.741Z" fill="#FEFEFE"/>
<path d="M284.433 224.991H282.663V226.757H284.433V224.991Z" fill="#FEFEFE"/>
<path d="M289.726 226.741H287.956V228.507H289.726V226.741Z" fill="#FEFEFE"/>
<path d="M291.495 224.976H289.725V226.741H291.495V224.976Z" fill="#FEFEFE"/>
<path d="M287.956 224.976H286.187V226.741H287.956V224.976Z" fill="#FEFEFE"/>
<path d="M252.565 293.413V308.833C252.565 309.053 252.535 309.264 252.48 309.464C252.258 310.278 251.61 310.92 250.792 311.135C250.596 311.189 250.39 311.216 250.177 311.216H234.723C233.405 311.216 232.335 310.149 232.335 308.833V293.413C232.335 292.098 233.405 291.03 234.723 291.03H250.177C251.495 291.03 252.565 292.098 252.565 293.413L252.565 293.413Z" fill="#FCC020"/>
<path d="M248.477 301.028V301.057C248.474 301.312 248.432 301.557 248.357 301.788C248.33 301.87 248.298 301.952 248.263 302.03V302.03C247.878 302.887 247.017 303.484 246.016 303.484C245.893 303.484 245.773 303.475 245.655 303.457C244.476 303.285 243.569 302.278 243.554 301.057V301.028C243.554 299.794 244.467 298.772 245.655 298.598C245.773 298.581 245.893 298.572 246.016 298.572C247.017 298.572 247.878 299.168 248.263 300.025V300.026C248.298 300.104 248.33 300.185 248.357 300.268C248.435 300.507 248.477 300.763 248.477 301.028Z" fill="#1F1F1F"/>
<path d="M248.357 303.797V303.799C247.683 304.75 246.747 305.501 245.655 305.951C244.925 306.253 244.124 306.419 243.284 306.419C243.225 306.419 243.166 306.418 243.108 306.417C243.056 306.415 243.006 306.413 242.954 306.411V306.419C241.969 306.419 241.047 306.157 240.252 305.698C239.811 305.442 239.408 305.127 239.057 304.762L239.053 304.758C238.761 304.455 238.505 304.117 238.291 303.752C237.825 302.961 237.556 302.041 237.551 301.057L237.551 301.027V294.57C237.63 294.562 237.71 294.558 237.791 294.558C238.471 294.558 239.086 294.833 239.532 295.277C239.65 295.396 239.756 295.525 239.849 295.666C239.996 295.889 240.108 296.137 240.176 296.403C240.226 296.598 240.253 296.803 240.253 297.014V299.86C240.253 300.272 240.302 300.673 240.398 301.057C240.663 302.136 241.279 303.077 242.118 303.752C242.377 303.962 242.657 304.145 242.954 304.299C243.646 304.658 244.431 304.861 245.265 304.861C245.397 304.861 245.526 304.857 245.655 304.846C246.147 304.808 246.619 304.7 247.061 304.531C247.532 304.351 247.967 304.102 248.357 303.797L248.357 303.797Z" fill="#1F1F1F"/>
<path d="M249.039 309.479H250.808V307.713H249.039V309.479Z" fill="#FEFEFE"/>
<path d="M252.48 309.464C252.257 310.279 251.61 310.92 250.792 311.135V309.464H252.48Z" fill="#FEFEFE"/>
<path d="M245.5 309.479H247.269V307.713H245.5V309.479Z" fill="#FEFEFE"/>
<path d="M243.73 311.245H245.5V309.479H243.73V311.245Z" fill="#FEFEFE"/>
<path d="M247.269 311.245H249.038V309.479H247.269V311.245Z" fill="#FEFEFE"/>
<path d="M238.455 309.479H236.686V311.245H238.455V309.479Z" fill="#FEFEFE"/>
<path d="M236.701 307.729H234.932V309.495H236.701V307.729Z" fill="#FEFEFE"/>
<path d="M241.994 309.479H240.225V311.245H241.994V309.479Z" fill="#FEFEFE"/>
<path d="M243.763 307.713H241.994V309.479H243.763V307.713Z" fill="#FEFEFE"/>
<path d="M240.224 307.713H238.455V309.479H240.224V307.713Z" fill="#FEFEFE"/>
<path d="M244.985 123.796V139.216C244.985 139.436 244.955 139.647 244.899 139.847C244.677 140.661 244.03 141.303 243.212 141.518C243.015 141.572 242.81 141.599 242.597 141.599H227.143C225.825 141.599 224.755 140.531 224.755 139.216V123.796C224.755 122.481 225.825 121.413 227.143 121.413H242.597C243.915 121.413 244.985 122.481 244.985 123.796L244.985 123.796Z" fill="#FCC020"/>
<path d="M240.897 131.411V131.44C240.893 131.695 240.851 131.94 240.776 132.171C240.749 132.253 240.718 132.334 240.683 132.413V132.413C240.298 133.27 239.437 133.867 238.435 133.867C238.313 133.867 238.193 133.858 238.075 133.84C236.896 133.668 235.988 132.661 235.974 131.44V131.411C235.974 130.177 236.886 129.155 238.075 128.981C238.193 128.963 238.313 128.955 238.435 128.955C239.437 128.955 240.298 129.551 240.683 130.408V130.408C240.718 130.487 240.749 130.568 240.776 130.65C240.854 130.89 240.897 131.145 240.897 131.411Z" fill="#1F1F1F"/>
<path d="M240.777 134.18V134.182C240.102 135.132 239.167 135.884 238.075 136.334C237.344 136.636 236.544 136.802 235.704 136.802C235.645 136.802 235.586 136.801 235.528 136.799C235.476 136.798 235.425 136.796 235.374 136.793V136.802C234.389 136.802 233.466 136.539 232.672 136.08C232.23 135.825 231.828 135.51 231.477 135.145L231.473 135.141C231.181 134.838 230.924 134.5 230.711 134.135C230.245 133.344 229.976 132.423 229.971 131.44L229.971 131.41V124.952C230.049 124.945 230.13 124.941 230.211 124.941C230.89 124.941 231.506 125.216 231.951 125.66C232.069 125.778 232.176 125.908 232.268 126.049C232.415 126.271 232.528 126.52 232.595 126.786C232.646 126.981 232.672 127.186 232.672 127.397V130.242C232.672 130.655 232.722 131.057 232.817 131.44C233.082 132.519 233.699 133.46 234.538 134.135C234.797 134.345 235.077 134.528 235.374 134.682C236.065 135.041 236.851 135.244 237.685 135.244C237.817 135.244 237.946 135.24 238.075 135.229C238.567 135.191 239.039 135.083 239.481 134.914C239.951 134.734 240.387 134.485 240.777 134.18L240.777 134.18Z" fill="#1F1F1F"/>
<path d="M241.458 139.862H243.228V138.097H241.458V139.862Z" fill="#FEFEFE"/>
<path d="M244.899 139.847C244.677 140.661 244.03 141.303 243.212 141.518V139.847H244.899Z" fill="#FEFEFE"/>
<path d="M237.919 139.862H239.689V138.097H237.919V139.862Z" fill="#FEFEFE"/>
<path d="M236.15 141.628H237.919V139.862H236.15V141.628Z" fill="#FEFEFE"/>
<path d="M239.689 141.628H241.458V139.862H239.689V141.628Z" fill="#FEFEFE"/>
<path d="M230.875 139.862H229.105V141.628H230.875V139.862Z" fill="#FEFEFE"/>
<path d="M229.121 138.112H227.351V139.878H229.121V138.112Z" fill="#FEFEFE"/>
<path d="M234.414 139.862H232.644V141.628H234.414V139.862Z" fill="#FEFEFE"/>
<path d="M236.183 138.097H234.414V139.862H236.183V138.097Z" fill="#FEFEFE"/>
<path d="M232.644 138.097H230.875V139.862H232.644V138.097Z" fill="#FEFEFE"/>
<path d="M157.479 88.0479V103.468C157.479 103.688 157.449 103.899 157.394 104.099C157.172 104.913 156.524 105.555 155.706 105.77C155.51 105.824 155.305 105.851 155.091 105.851H139.637C138.319 105.851 137.249 104.783 137.249 103.468V88.0479C137.249 86.7328 138.319 85.665 139.637 85.665H155.091C156.409 85.665 157.479 86.7328 157.479 88.0479H157.479Z" fill="#FCC020"/>
<path d="M153.391 95.6624V95.6917C153.388 95.9465 153.346 96.1919 153.271 96.4227C153.244 96.5051 153.213 96.5862 153.177 96.6647V96.6651C152.792 97.5218 151.931 98.1184 150.93 98.1184C150.807 98.1184 150.687 98.1096 150.569 98.0922C149.39 97.9194 148.483 96.9126 148.468 95.6917V95.6624C148.468 94.4285 149.381 93.4065 150.569 93.2327C150.687 93.2154 150.807 93.2065 150.93 93.2065C151.931 93.2065 152.792 93.8032 153.177 94.6598V94.6603C153.213 94.7388 153.244 94.8198 153.271 94.9022C153.349 95.1421 153.391 95.3972 153.391 95.6624V95.6624Z" fill="#1F1F1F"/>
<path d="M153.271 98.4317V98.4341C152.597 99.3844 151.661 100.136 150.569 100.586C149.839 100.888 149.038 101.054 148.198 101.054C148.139 101.054 148.08 101.053 148.022 101.051C147.971 101.05 147.92 101.048 147.868 101.045V101.054C146.883 101.054 145.961 100.791 145.166 100.332C144.725 100.077 144.322 99.7616 143.971 99.3968L143.967 99.3927C143.675 99.0894 143.419 98.7522 143.205 98.3873C142.739 97.596 142.47 96.6753 142.465 95.6917L142.465 95.6623V89.2043C142.543 89.197 142.624 89.1929 142.705 89.1929C143.385 89.1929 144 89.4678 144.445 89.9122C144.564 90.0303 144.67 90.1602 144.762 90.3005C144.91 90.5233 145.022 90.7719 145.09 91.0379C145.14 91.233 145.166 91.4381 145.166 91.6487V94.4943C145.166 94.907 145.216 95.3082 145.312 95.6917C145.576 96.7705 146.193 97.7116 147.032 98.3872C147.291 98.5965 147.571 98.7797 147.868 98.9337C148.56 99.2932 149.345 99.4961 150.179 99.4961C150.311 99.4961 150.44 99.4914 150.569 99.4812C151.061 99.4434 151.533 99.3349 151.975 99.1655C152.446 98.9858 152.881 98.7371 153.271 98.4315L153.271 98.4317Z" fill="#1F1F1F"/>
<path d="M153.953 104.114H155.722V102.349H153.953V104.114Z" fill="#FEFEFE"/>
<path d="M157.394 104.099C157.172 104.913 156.524 105.555 155.706 105.77V104.099H157.394Z" fill="#FEFEFE"/>
<path d="M150.414 104.114H152.183V102.349H150.414V104.114Z" fill="#FEFEFE"/>
<path d="M148.644 105.88H150.414V104.114H148.644V105.88Z" fill="#FEFEFE"/>
<path d="M152.183 105.88H153.953V104.114H152.183V105.88Z" fill="#FEFEFE"/>
<path d="M143.369 104.114H141.6V105.88H143.369V104.114Z" fill="#FEFEFE"/>
<path d="M141.615 102.364H139.846V104.13H141.615V102.364Z" fill="#FEFEFE"/>
<path d="M146.908 104.114H145.139V105.88H146.908V104.114Z" fill="#FEFEFE"/>
<path d="M148.678 102.349H146.908V104.114H148.678V102.349Z" fill="#FEFEFE"/>
<path d="M145.139 102.349H143.369V104.114H145.139V102.349Z" fill="#FEFEFE"/>
</g>
<defs>
<clipPath id="clip0_76_211">
<rect width="811" height="392" fill="white"/>
</clipPath>
</defs>
</svg>
