<svg width="81" height="37" viewBox="0 0 81 37" fill="none" xmlns="http://www.w3.org/2000/svg">
<g id="_2254536808176">
<path id="Vector" d="M80.0965 19.0799H80.0861V19.0493H80.0965V19.0799Z" fill="#49474A"/>
<path id="Vector_2" d="M36.9478 4.36138V32.5859C36.9478 32.9878 36.8929 33.3743 36.7919 33.7409C36.386 35.231 35.2037 36.4058 33.7096 36.7991C33.3507 36.8968 32.9765 36.9472 32.5861 36.9472H4.36177C1.95461 36.9472 0 34.993 0 32.5857V4.36118C0 1.95441 1.95461 0 4.36177 0H32.5861C34.9932 0 36.9478 1.95441 36.9478 4.36118V4.36138Z" fill="#FCC020"/>
<path id="Vector_3" d="M29.4812 18.2992V18.3528C29.4755 18.8192 29.3989 19.2682 29.262 19.6907C29.2127 19.8417 29.1555 19.99 29.0912 20.1337V20.1346C28.3883 21.7026 26.8149 22.7949 24.9862 22.7949C24.762 22.7949 24.5432 22.7786 24.3282 22.747C22.1747 22.4304 20.5171 20.588 20.4905 18.353V18.2994C20.4905 16.041 22.1569 14.1702 24.3282 13.8521C24.5434 13.8204 24.7622 13.8042 24.9862 13.8042C26.8149 13.8042 28.3881 14.8961 29.0912 16.4644V16.465C29.1557 16.6092 29.2129 16.7573 29.262 16.9082C29.4044 17.3468 29.4812 17.8139 29.4812 18.2998V18.2992Z" fill="#353433"/>
<path id="Vector_4" d="M29.2617 23.3678V23.3723C28.0305 25.1114 26.3223 26.4872 24.3276 27.3106C22.9932 27.8632 21.5306 28.1669 19.9965 28.1669C19.8894 28.1669 19.782 28.1657 19.6759 28.1626C19.5811 28.1603 19.4881 28.1558 19.3939 28.1519V28.1669C17.5956 28.1669 15.9105 27.6866 14.4598 26.8468C13.6528 26.3799 12.9183 25.802 12.2769 25.1347L12.2691 25.1266C11.7361 24.5715 11.2677 23.9544 10.8775 23.2863C10.0267 21.8382 9.53565 20.1529 9.52666 18.353L9.52588 18.2989V6.47843C9.6693 6.46553 9.81605 6.45752 9.96436 6.45752C11.2054 6.45752 12.3291 6.96107 13.143 7.77453C13.3589 7.99065 13.5529 8.22825 13.7219 8.4854C13.9904 8.89282 14.1954 9.3483 14.3195 9.83505C14.4111 10.1919 14.4596 10.5674 14.4596 10.9529V16.1616C14.4596 16.917 14.5505 17.6513 14.7249 18.3534C15.2086 20.3278 16.3347 22.0504 17.8672 23.2867C18.3401 23.6699 18.8509 24.0054 19.3937 24.287C20.657 24.9453 22.092 25.317 23.6148 25.317C23.8551 25.317 24.0919 25.308 24.3274 25.2894C25.2257 25.2202 26.0874 25.0217 26.8944 24.7114C27.754 24.3827 28.55 23.9275 29.2615 23.3682L29.2617 23.3678Z" fill="#353433"/>
<path id="Vector_5" d="M30.5069 33.7682H33.7385V30.5366H30.5069V33.7682Z" fill="#FEFEFE"/>
<path id="Vector_6" d="M36.7918 33.7412C36.3859 35.231 35.2041 36.4051 33.7101 36.7995V33.7412H36.7918Z" fill="#FEFEFE"/>
<path id="Vector_7" d="M24.0437 33.7682H27.2753V30.5366H24.0437V33.7682Z" fill="#FEFEFE"/>
<path id="Vector_8" d="M20.8116 37.0003H24.0436V33.7686H20.8116V37.0003Z" fill="#FEFEFE"/>
<path id="Vector_9" d="M27.2752 37.0003H30.507V33.7686H27.2752V37.0003Z" fill="#FEFEFE"/>
<path id="Vector_10" d="M11.1776 33.7686H7.9458V37.0003H11.1776V33.7686Z" fill="#FEFEFE"/>
<path id="Vector_11" d="M7.97443 30.5654H4.74268V33.797H7.97443V30.5654Z" fill="#FEFEFE"/>
<path id="Vector_12" d="M17.6412 33.7686H14.4092V37.0003H17.6412V33.7686Z" fill="#FEFEFE"/>
<path id="Vector_13" d="M20.8727 30.5366H17.6411V33.7682H20.8727V30.5366Z" fill="#FEFEFE"/>
<path id="Vector_14" d="M14.4091 30.5366H11.1776V33.7682H14.4091V30.5366Z" fill="#FEFEFE"/>
</g>
</svg>
