<svg width="26" height="26" viewBox="0 0 26 26" fill="none" xmlns="http://www.w3.org/2000/svg">
<g id="Group 244">
<circle id="Ellipse 4" cx="12.6667" cy="12.6667" r="12.6667" fill="#F8BF00"/>
<path id="Vector" d="M10.7449 11.5972L11.862 10.5018C12.1675 10.2017 12.3822 9.81073 12.4785 9.37911C12.5749 8.94748 12.5486 8.49489 12.4029 8.0794L11.9265 6.71793C11.7485 6.20965 11.3962 5.79311 10.9413 5.55318C10.4863 5.31325 9.96304 5.26798 9.47801 5.42659C7.69312 6.01103 6.32117 7.78662 6.74347 9.89507C7.02119 11.2822 7.5527 13.0232 8.55956 14.8756C9.5685 16.7325 10.721 18.104 11.7091 19.0681C13.2007 20.5208 15.333 20.1579 16.7049 18.7886C17.0727 18.4216 17.2958 17.9184 17.3289 17.3814C17.3619 16.8444 17.2024 16.3141 16.8828 15.8987L16.0091 14.7632C15.7456 14.4198 15.3921 14.1687 14.9941 14.0421C14.5961 13.9156 14.1718 13.9193 13.7759 14.053L12.3322 14.5394C11.9593 14.1276 11.6326 13.6707 11.3586 13.178C11.0941 12.6796 10.888 12.1483 10.7449 11.5961V11.5972Z" fill="white"/>
</g>
</svg>
