<svg width="96" height="42" viewBox="0 0 96 42" fill="none" xmlns="http://www.w3.org/2000/svg">
<path d="M39.9385 0H23.5283C22.6592 0 21.9546 1.18247 21.9546 2.64111C21.9546 4.09976 22.6592 5.28222 23.5283 5.28222H39.9385C40.8076 5.28222 41.5122 4.09976 41.5122 2.64111C41.5122 1.18247 40.8076 0 39.9385 0Z" fill="#F8BF00"/>
<path d="M27.5293 8.56738H11.1191C10.25 8.56738 9.54541 9.74985 9.54541 11.2085C9.54541 12.6671 10.25 13.8496 11.1191 13.8496H27.5293C28.3985 13.8496 29.103 12.6671 29.103 11.2085C29.103 9.74985 28.3985 8.56738 27.5293 8.56738Z" fill="#F8BF00"/>
<path d="M17.9839 17.627H1.57371C0.704573 17.627 0 18.8094 0 20.2681C0 21.7267 0.704573 22.9092 1.57371 22.9092H17.9839C18.853 22.9092 19.5576 21.7267 19.5576 20.2681C19.5576 18.8094 18.853 17.627 17.9839 17.627Z" fill="#F8BF00"/>
<g clip-path="url(#clip0_50_2487)">
<path fill-rule="evenodd" clip-rule="evenodd" d="M81.2806 31.6323C84.4914 30.1773 86.0645 35.1869 83.2494 36.4141C81.7151 37.083 80.2567 36.1943 79.7773 35.0835C79.0638 33.4299 79.8409 32.2848 81.2806 31.6323ZM40.0115 31.6323C43.2223 30.1773 44.7954 35.1869 41.9804 36.4141C40.446 37.083 38.9877 36.1943 38.5083 35.0835C37.7947 33.4299 38.5718 32.2848 40.0115 31.6323ZM32.9707 20.7161H81.3835C84.8513 20.7161 86.6248 21.7242 88.2696 23.6374C90.2464 25.9367 90.1146 27.9472 90.1146 31.3483C89.2614 31.033 89.7645 31.3966 89.2048 30.3989C88.4902 29.1251 88.2285 28.7287 87.0643 27.7627C84.2931 25.4631 80.0459 25.4674 77.2908 27.7633C74.4566 30.125 75.5216 31.118 74.2408 31.3483H49.3735C47.7593 31.3483 48.503 30.9794 47.3537 29.3924C44.6254 25.6249 39.4121 24.9382 36.0217 27.7633C33.1031 30.1954 34.4774 30.7897 32.9706 31.3483L32.9707 20.7161ZM59.4252 10.2518C64.1561 10.7729 69.7133 12.9196 72.401 15.3711L71.2646 15.4032H59.4252L59.4252 10.2518ZM40.7441 15.2838C45.2376 12.9182 48.0233 10.9239 54.1365 10.2518V15.4096L40.7441 15.2838ZM27.6819 36.6612H32.9718C34.2533 36.8912 33.1916 37.8906 36.0233 40.2443C39.5535 43.1785 45.1738 42.5245 47.9347 37.6092C48.3473 36.8748 48.0765 36.6612 49.3735 36.6612H74.2407C75.5222 36.8912 74.4606 37.8906 77.2924 40.2443C80.6856 43.0648 85.8762 42.3941 88.6211 38.6152C88.8528 38.2963 88.9421 38.0751 89.2038 37.6092C89.6163 36.8748 89.3455 36.6612 90.6425 36.6612H95.4044C95.4034 30.0829 96.2396 23.3206 91.1264 18.9013C87.8792 16.0948 85.2114 15.4031 79.7053 15.4031C77.2397 9.81188 65.2578 4.93163 57.3132 4.78351C47.0725 4.59264 40.0365 9.70312 33.0488 13.4644L27.6819 17.1823V36.6612Z" fill="#282828"/>
</g>
<defs>
<clipPath id="clip0_50_2487">
<rect width="67.7727" height="37.2273" fill="white" transform="translate(27.6819 4.77295)"/>
</clipPath>
</defs>
</svg>
