<svg width="79" height="59" viewBox="0 0 79 59" fill="none" xmlns="http://www.w3.org/2000/svg">
<g id="Group 50">
<g id="Group 113">
<path id="Vector" d="M37.9972 53.2315L38.0111 53.2335C38.9222 53.3605 39.885 53.4696 40.7647 53.4696C41.0714 53.4696 41.5605 53.3989 42.0801 53.2877C42.5931 53.1779 43.0681 53.0435 43.3343 52.9431L43.3343 52.943C43.6963 52.8065 44.6378 52.2872 45.9602 51.5036C47.252 50.7381 48.8377 49.7632 50.4432 48.7644C51.8014 47.9194 53.1773 47.055 54.3973 46.2886C56.0493 45.2507 57.4154 44.3925 58.0646 44.0052L58.0647 44.0052C59.2931 43.2725 60.4735 42.5316 61.6999 41.7618C61.8853 41.6454 62.0719 41.5283 62.2598 41.4105C63.1137 40.8751 64.3944 40.0998 65.7861 39.2573C68.4235 37.6606 71.4596 35.8225 72.7452 34.9188C73.7687 34.1993 73.8341 33.113 73.413 32.4357C73.2033 32.0984 72.8687 31.8501 72.4277 31.7727C71.9835 31.6947 71.3554 31.7785 70.5629 32.2573L70.5561 32.2614L70.5492 32.2654L59.5532 38.5943C59.5513 38.5955 59.5493 38.5966 59.5474 38.5978C59.4034 38.6837 59.1064 38.8505 58.7568 39.0469C58.4778 39.2036 58.1652 39.3791 57.8701 39.5475C57.5253 39.7441 57.1969 39.9349 56.9456 40.0892C56.8191 40.1668 56.7198 40.2306 56.6504 40.2785C56.6476 40.2804 56.6448 40.2823 56.6422 40.2841C56.635 40.303 56.6258 40.3287 56.6149 40.3628C56.5777 40.4792 56.5411 40.6256 56.4961 40.8103C56.491 40.8315 56.4857 40.8534 56.4802 40.8759C56.402 41.1994 56.2923 41.6528 56.117 41.9988C55.2563 43.6979 53.3518 45.2377 50.9987 45.2377C50.6391 45.2377 49.823 45.113 48.8729 44.9495C47.8857 44.7796 46.6598 44.5499 45.417 44.3097C43.4314 43.9261 41.3908 43.5134 40.1951 43.2717C39.894 43.2108 39.6465 43.1607 39.467 43.1247L39.4669 43.1247C39.2711 43.0854 39.0782 43.055 38.8682 43.022C38.7537 43.004 38.6341 42.9852 38.5063 42.9637C38.1696 42.9071 37.7952 42.8344 37.4494 42.7122C37.1043 42.5902 36.7299 42.3995 36.4413 42.0701C36.1372 41.7231 35.983 41.285 35.983 40.7801C35.983 40.1023 36.2163 39.5224 36.7386 39.1584C37.2078 38.8315 37.7844 38.7728 38.2711 38.7866C38.7748 38.8009 39.315 38.8987 39.8066 39.0039C40.0489 39.0558 40.2643 39.1057 40.4676 39.1528C40.7151 39.2102 40.9446 39.2634 41.1824 39.3108L37.9972 53.2315ZM37.9972 53.2315L37.9833 53.2301M37.9972 53.2315L37.9833 53.2301M37.9833 53.2301L23.7703 51.7874L23.7703 51.7873M37.9833 53.2301L23.7703 51.7873M23.7703 51.7873L23.7569 51.7862M23.7703 51.7873L23.7569 51.7862M23.7569 51.7862C22.9477 51.7187 22.2794 51.6488 21.6591 51.5839C20.3836 51.4504 19.3113 51.3382 17.6354 51.3124V37.943C19.7761 37.7516 21.904 36.7891 23.8961 35.888C23.9425 35.8671 23.9888 35.8461 24.035 35.8252C26.3763 34.7667 28.5498 33.8064 30.6857 33.8064C32.49 33.8064 33.4165 33.847 34.325 33.9888C35.0879 34.1079 35.8429 34.2983 37.097 34.6145C37.3657 34.6822 37.6572 34.7557 37.9767 34.8356L38.1585 34.1079M23.7569 51.7862L38.1585 34.1079M38.1585 34.1079L37.9767 34.8356C39.074 35.1097 40.1742 35.3518 41.2607 35.5908C42.0289 35.7598 42.7903 35.9273 43.5389 36.1036L43.7108 35.3736M38.1585 34.1079L43.7108 35.3736M43.7108 35.3736L43.5389 36.1036C44.3707 36.2995 45.1768 36.4774 45.9765 36.6539C46.9691 36.8731 47.9519 37.09 48.9618 37.3363M43.7108 35.3736L47.6691 40.5723M47.6691 40.5723L47.6692 40.5724C47.9679 40.6319 48.2596 40.6972 48.5453 40.761C49.3532 40.9417 50.1128 41.1115 50.8434 41.1115C51.4642 41.1115 51.8855 40.9315 52.1453 40.6881C52.3997 40.4498 52.5744 40.0809 52.5744 39.5444C52.5744 39.0599 52.4555 38.7537 52.3025 38.5419C52.1438 38.3224 51.9035 38.1427 51.5645 37.9906C51.2211 37.8367 50.8131 37.727 50.3545 37.628C50.1962 37.5938 50.0202 37.5588 49.8392 37.5229C49.541 37.4636 49.2295 37.4016 48.9618 37.3363M47.6691 40.5723C47.3186 40.5025 46.9663 40.4299 46.6161 40.3576C45.8598 40.2016 45.1131 40.0475 44.4143 39.9285L44.4142 39.9285M47.6691 40.5723L44.4142 39.9285M48.9618 37.3363L49.1394 36.6083L48.9619 37.3363C48.9618 37.3363 48.9618 37.3363 48.9618 37.3363ZM44.4142 39.9285C43.4341 39.7617 42.5449 39.5835 41.6686 39.408M44.4142 39.9285L41.6686 39.408M53.9822 34.6584C54.7143 35.1417 55.189 35.5868 55.6073 36.2087L69.0229 28.4905L69.0393 28.4811L69.0561 28.4725C72.4904 26.7209 75.6377 28.1498 77.0149 30.601C77.6973 31.8157 77.9484 33.2855 77.5814 34.7258C77.2121 36.175 76.2327 37.5349 74.5618 38.5509C74.5608 38.5515 74.5598 38.5521 74.5588 38.5527L47.9899 55.0191L47.9792 55.0258L47.9792 55.0257C46.0531 56.175 44.5729 56.9066 42.9341 57.2515C41.2965 57.5962 39.563 57.5418 37.1487 57.237L37.1486 57.2369C36.6357 57.1721 36.098 57.1242 35.5239 57.0731C35.104 57.0357 34.6647 56.9966 34.2012 56.9478C34.2008 56.9478 34.2004 56.9477 34.1999 56.9477L19.7125 55.4724L19.7033 55.4715L19.694 55.4703C19.0217 55.3849 18.3278 55.3226 17.6493 55.2948C17.6493 55.312 17.6493 55.3291 17.6492 55.3463C17.6481 55.6444 17.6311 55.9954 17.545 56.3316C17.4574 56.6735 17.2852 57.0506 16.9374 57.3365C16.5845 57.6264 16.1391 57.7504 15.6453 57.7504H3.24038C2.69955 57.7504 2.18808 57.571 1.80968 57.1941C1.43099 56.8169 1.25 56.3059 1.25 55.7646V32.2841C1.25 31.743 1.43091 31.232 1.80954 30.8548C2.18791 30.4778 2.6994 30.2984 3.24038 30.2984H15.6453C16.2021 30.2984 16.6997 30.4633 17.067 30.8502C17.4112 31.2126 17.5508 31.6779 17.6147 32.0913C17.6794 32.5096 17.6801 32.9726 17.6696 33.4112C17.6659 33.5696 17.6607 33.7233 17.6556 33.8752L53.9822 34.6584ZM53.9822 34.6584C53.9823 34.6585 53.9823 34.6585 53.9823 34.6585L53.569 35.2844L53.9822 34.6584ZM53.9822 34.6584C53.7216 34.4864 53.3079 34.327 52.8707 34.1805C52.4064 34.0249 51.8269 33.8559 51.1747 33.6799C49.8691 33.3275 48.238 32.938 46.5846 32.5617C44.9297 32.1851 43.2451 31.8201 41.8306 31.5166C41.432 31.4312 41.0557 31.3507 40.7077 31.2763C39.8166 31.0859 39.1118 30.9352 38.6978 30.8416C38.6978 30.8416 38.6977 30.8416 38.6977 30.8416L38.5432 30.8066C35.3872 30.0924 33.2853 29.6168 31.1772 29.6631C29.0094 29.7108 26.8829 30.3055 23.608 31.6094M53.9822 34.6584L23.608 31.6094M23.608 31.6094C23.608 31.6094 23.608 31.6094 23.608 31.6094L23.8848 32.3046L23.608 31.6094ZM37.2427 56.4929C36.7236 56.4273 36.1562 56.3766 35.5653 56.3237C35.1453 56.2862 34.7133 56.2476 34.2784 56.2018L37.2427 56.4929ZM37.2427 56.4929C42.0216 57.0964 43.7784 56.659 47.5948 54.3816L37.2427 56.4929ZM41.6686 39.408C41.5062 39.3755 41.3444 39.343 41.1824 39.3108L41.6686 39.408ZM56.6417 40.2652L56.6419 40.265L56.6417 40.2652ZM5.23077 34.2696H13.6547V53.7785H5.23077V34.2696Z" fill="#282828" stroke="#282828" stroke-width="1.5"/>
<path id="Vector_2" d="M7.7019 37.2792C7.70115 37.3766 7.6985 37.4794 7.69565 37.59C7.69546 37.5973 7.69527 37.6046 7.69508 37.612C7.69157 37.7485 7.68797 37.8956 7.68854 38.0436C7.68966 38.3355 7.70655 38.6618 7.78492 38.9678C7.86427 39.2776 8.01538 39.6002 8.3091 39.8416C8.60614 40.0857 8.9904 40.1986 9.44249 40.1986C9.89457 40.1986 10.2788 40.0857 10.5759 39.8416C10.8696 39.6002 11.0207 39.2776 11.1001 38.9678C11.1784 38.6618 11.1953 38.3355 11.1964 38.0436C11.197 37.8956 11.1934 37.7485 11.1899 37.612C11.1897 37.6046 11.1895 37.5973 11.1893 37.59C11.186 37.4594 11.1829 37.3398 11.1829 37.227C11.1829 36.6772 10.9723 36.2279 10.6279 35.921C10.2925 35.6222 9.85938 35.4834 9.44239 35.4834C9.02539 35.4834 8.59223 35.6222 8.25691 35.921C7.91248 36.2279 7.7019 36.6772 7.7019 37.227V37.2792Z" fill="#282828" stroke="#282828"/>
<circle id="Ellipse 1" cx="48.0003" cy="13" r="13" fill="#F8BF00"/>
<path id="Vector_3" d="M49.5172 17.4022L49.5172 17.4022C50.0468 17.1524 50.3709 16.8693 50.5473 16.5948C50.7206 16.325 50.7591 16.0526 50.7004 15.7939C50.5798 15.2621 50.0262 14.7253 49.1935 14.4679C48.7874 14.3423 48.3217 14.3071 47.8097 14.2684L47.8082 14.2683C47.3076 14.2305 46.7657 14.1892 46.2607 14.0364L46.3332 13.7971L46.2607 14.0364C44.0089 13.3548 42.8487 11.8186 42.7565 10.2123C42.6646 8.61227 43.6385 7.01608 45.4965 6.23073C45.7339 6.13034 45.9994 6.05691 46.237 5.9912C46.2465 5.98857 46.2559 5.98596 46.2654 5.98336C46.4511 5.93196 46.6153 5.88548 46.7527 5.83424C46.7526 5.80793 46.7524 5.78161 46.7522 5.75531C46.7509 5.57091 46.7496 5.38786 46.7551 5.21879C46.7631 4.97358 46.7857 4.73107 46.8517 4.517C46.9191 4.29868 47.0356 4.09743 47.2378 3.95477C47.4378 3.81361 47.6931 3.75 48.0003 3.75C48.3074 3.75 48.5627 3.81364 48.7627 3.95484C48.9648 4.09754 49.0814 4.29882 49.1487 4.51717C49.2148 4.73127 49.2374 4.97382 49.2454 5.21906C49.2509 5.38825 49.2496 5.57143 49.2483 5.75595C49.2481 5.78234 49.2479 5.80874 49.2478 5.83514C49.4006 5.89322 49.586 5.94649 49.7921 6.0048L49.8137 6.01092C50.0715 6.08385 50.357 6.16461 50.5952 6.27082C52.0306 6.91054 52.8904 8.09716 53.1588 9.14395C53.2923 9.66448 53.2859 10.1776 53.0978 10.575C52.9009 10.9911 52.5171 11.2502 51.9879 11.2502C51.6213 11.2502 51.3447 11.1562 51.1429 10.9656C50.9495 10.783 50.8571 10.5405 50.7929 10.3191C50.7677 10.2325 50.7448 10.1411 50.7227 10.053C50.7164 10.0276 50.7101 10.0026 50.7038 9.97797C50.6751 9.86474 50.6457 9.7556 50.6093 9.64945C50.537 9.43861 50.4398 9.24899 50.2793 9.08985M49.5172 17.4022L50.4554 8.91233M49.5172 17.4022C48.9132 17.6872 48.0622 17.7724 47.2706 17.6324C46.474 17.4915 45.802 17.1354 45.4917 16.6061L45.4917 16.606C45.406 16.4599 45.3537 16.2913 45.3071 16.1013C45.2958 16.055 45.2845 16.0058 45.2728 15.9549C45.2398 15.8111 45.2039 15.6546 45.156 15.5166C45.0882 15.3214 44.9838 15.12 44.7893 14.9715C44.5933 14.822 44.3374 14.7499 44.0126 14.7499C43.4834 14.7499 43.0997 15.009 42.9027 15.4251C42.7146 15.8225 42.7082 16.3356 42.8417 16.8561C43.1101 17.9029 43.9699 19.0895 45.4053 19.7292M49.5172 17.4022L46.7528 20.1649M50.2793 9.08985L50.4554 8.91233M50.2793 9.08985L50.4554 8.91233M50.2793 9.08985C49.4832 8.30041 48.2217 8.13016 47.1317 8.38742C46.5907 8.51512 46.1132 8.74413 45.7762 9.03315C45.4396 9.3219 45.2593 9.6546 45.2593 10.0001C45.2593 10.4376 45.4529 10.7552 45.7758 11.0027C46.1086 11.2578 46.5756 11.434 47.0944 11.5589C47.6098 11.6831 48.1535 11.7514 48.627 11.8042C48.6941 11.8117 48.7602 11.8189 48.8247 11.8259C48.985 11.8434 49.1353 11.8598 49.2673 11.8767C49.4492 11.8999 49.6166 11.9262 49.7398 11.9635M50.4554 8.91233C48.7006 7.17225 45.0093 8.24123 45.0093 10.0001C45.0093 11.6609 47.3902 11.9208 48.8001 12.0747C49.1834 12.1166 49.4949 12.1506 49.6673 12.2028C51.2191 12.6724 52.985 13.9153 52.985 15.75C52.985 18.6679 50.903 19.3502 49.6435 19.763C49.385 19.8477 49.1612 19.921 48.9971 20M49.7398 11.9635L49.6675 12.2021L49.7398 11.9635C49.7398 11.9635 49.7398 11.9635 49.7398 11.9635ZM49.7398 11.9635C50.5452 12.2072 51.4108 12.6524 52.0795 13.2825C52.75 13.9143 53.235 14.7455 53.235 15.75C53.235 16.6662 53.0376 17.386 52.715 17.9556C52.3925 18.5248 51.9527 18.9303 51.488 19.2298C51.025 19.5283 50.5349 19.723 50.1089 19.8709C49.9736 19.9179 49.8403 19.9616 49.7176 20.0018C49.6496 20.0241 49.5848 20.0453 49.5247 20.0655C49.4197 20.1007 49.3274 20.133 49.2478 20.1642M49.2478 20.1642C49.2474 20.1093 49.2471 20.0545 49.2471 20H48.9971M49.2478 20.1642C49.2479 20.1909 49.2481 20.2177 49.2483 20.2444C49.2496 20.4288 49.251 20.6119 49.2454 20.781C49.2374 21.0262 49.2148 21.2688 49.1488 21.4829C49.0814 21.7012 48.9649 21.9025 48.7628 22.0452C48.5628 22.1864 48.3075 22.25 48.0003 22.25C47.6931 22.25 47.4378 22.1864 47.2378 22.0452C47.0357 21.9025 46.9192 21.7012 46.8518 21.4829C46.7857 21.2688 46.7631 21.0262 46.7551 20.781C46.7496 20.6118 46.7509 20.4286 46.7522 20.2441C46.7524 20.2177 46.7526 20.1913 46.7528 20.1649M49.2478 20.1642C49.1948 20.1849 49.1475 20.2051 49.1056 20.2253L48.9971 20M48.9971 20L46.7528 20.1649M46.7528 20.1649C46.804 20.1844 46.8515 20.2044 46.8949 20.2253L47.0034 20H46.7534C46.7534 20.0547 46.7531 20.1098 46.7528 20.1649ZM46.7528 20.1649C46.5999 20.1068 46.4145 20.0536 46.2084 19.9952L46.1869 19.9891C45.929 19.9162 45.6435 19.8354 45.4053 19.7292M45.4053 19.7292C45.4053 19.7292 45.4053 19.7292 45.4053 19.7292L45.5071 19.5009L45.4053 19.7292Z" fill="#EDEDED" stroke="#EDEDED" stroke-width="0.5"/>
</g>
</g>
</svg>
