<svg width="96" height="42" viewBox="0 0 96 42" fill="none" xmlns="http://www.w3.org/2000/svg">
<path d="M39.9385 0H23.5283C22.6592 0 21.9546 1.18247 21.9546 2.64111C21.9546 4.09976 22.6592 5.28222 23.5283 5.28222H39.9385C40.8076 5.28222 41.5122 4.09976 41.5122 2.64111C41.5122 1.18247 40.8076 0 39.9385 0Z" fill="#F8BF00"/>
<path d="M27.5293 8.56738H11.1191C10.25 8.56738 9.54541 9.74985 9.54541 11.2085C9.54541 12.6671 10.25 13.8496 11.1191 13.8496H27.5293C28.3985 13.8496 29.103 12.6671 29.103 11.2085C29.103 9.74985 28.3985 8.56738 27.5293 8.56738Z" fill="#F8BF00"/>
<path d="M17.9839 17.627H1.57371C0.704573 17.627 0 18.8094 0 20.2681C0 21.7267 0.704573 22.9092 1.57371 22.9092H17.9839C18.853 22.9092 19.5576 21.7267 19.5576 20.2681C19.5576 18.8094 18.853 17.627 17.9839 17.627Z" fill="#F8BF00"/>
<g clip-path="url(#clip0_167_2461)">
<path fill-rule="evenodd" clip-rule="evenodd" d="M81.2803 31.6323C84.4911 30.1773 86.0642 35.1869 83.2491 36.4141C81.7149 37.083 80.2564 36.1943 79.7771 35.0835C79.0636 33.4299 79.8407 32.2848 81.2803 31.6323ZM40.0113 31.6323C43.2221 30.1773 44.7952 35.1869 41.9802 36.4141C40.4458 37.083 38.9874 36.1943 38.5081 35.0835C37.7945 33.4299 38.5716 32.2848 40.0113 31.6323ZM32.9704 20.7161H81.3833C84.851 20.7161 86.6246 21.7242 88.2694 23.6374C90.2461 25.9367 90.1144 27.9472 90.1144 31.3483C89.2612 31.033 89.7642 31.3966 89.2046 30.3989C88.49 29.1251 88.2282 28.7287 87.0641 27.7627C84.2929 25.4631 80.0457 25.4674 77.2905 27.7633C74.4564 30.125 75.5214 31.118 74.2405 31.3483H49.3733C47.759 31.3483 48.5027 30.9794 47.3535 29.3924C44.6252 25.6249 39.4118 24.9382 36.0215 27.7633C33.1028 30.1954 34.4772 30.7897 32.9704 31.3483L32.9704 20.7161ZM59.425 10.2518C64.1559 10.7729 69.713 12.9196 72.4008 15.3711L71.2644 15.4032H59.4249L59.425 10.2518ZM40.7439 15.2838C45.2374 12.9182 48.023 10.9239 54.1362 10.2518V15.4096L40.7439 15.2838ZM27.6816 36.6612H32.9715C34.253 36.8912 33.1914 37.8906 36.0231 40.2443C39.5533 43.1785 45.1736 42.5245 47.9345 37.6092C48.3471 36.8748 48.0762 36.6612 49.3732 36.6612H74.2405C75.522 36.8912 74.4604 37.8906 77.2921 40.2443C80.6854 43.0648 85.8759 42.3941 88.6209 38.6152C88.8525 38.2963 88.9419 38.0751 89.2035 37.6092C89.6161 36.8748 89.3453 36.6612 90.6423 36.6612H95.4041C95.4032 30.0829 96.2393 23.3206 91.1261 18.9013C87.879 16.0948 85.2112 15.4031 79.7051 15.4031C77.2395 9.81188 65.2576 4.93163 57.313 4.78351C47.0722 4.59264 40.0363 9.70312 33.0485 13.4644L27.6816 17.1823V36.6612Z" fill="#282828"/>
</g>
<defs>
<clipPath id="clip0_167_2461">
<rect width="67.7727" height="37.2273" fill="white" transform="translate(27.6816 4.77295)"/>
</clipPath>
</defs>
</svg>
