<svg width="32" height="32" viewBox="0 0 32 32" fill="none" xmlns="http://www.w3.org/2000/svg">
<g id="Group">
<path id="Vector" fill-rule="evenodd" clip-rule="evenodd" d="M15.9998 2.6665C8.63584 2.6665 2.6665 8.63584 2.6665 15.9998C2.6665 18.5198 3.3665 20.8798 4.58384 22.8905L3.3945 26.9332C3.32622 27.1653 3.32172 27.4115 3.3815 27.6459C3.44127 27.8804 3.5631 28.0944 3.73418 28.2655C3.90527 28.4366 4.11928 28.5584 4.35373 28.6182C4.58817 28.678 4.83439 28.6735 5.0665 28.6052L9.10917 27.4158C11.1874 28.6733 13.5708 29.3365 15.9998 29.3332C23.3638 29.3332 29.3332 23.3638 29.3332 15.9998C29.3332 8.63584 23.3638 2.6665 15.9998 2.6665ZM12.9838 19.0172C15.6812 21.7132 18.2558 22.0692 19.1652 22.1025C20.5478 22.1532 21.8945 21.0972 22.4185 19.8718C22.4847 19.7194 22.5087 19.552 22.488 19.3871C22.4674 19.2222 22.4029 19.0659 22.3012 18.9345C21.5705 18.0012 20.5825 17.3305 19.6172 16.6638C19.4156 16.5245 19.1679 16.4686 18.9261 16.5079C18.6842 16.5471 18.4669 16.6785 18.3198 16.8745L17.5198 18.0945C17.4778 18.1601 17.4122 18.2071 17.3366 18.226C17.261 18.2448 17.1811 18.234 17.1132 18.1958C16.5705 17.8852 15.7798 17.3572 15.2118 16.7892C14.6438 16.2212 14.1478 15.4665 13.8692 14.9585C13.8346 14.894 13.8246 14.8191 13.8411 14.7477C13.8575 14.6764 13.8992 14.6134 13.9585 14.5705L15.1905 13.6558C15.3663 13.503 15.4798 13.2908 15.5093 13.0597C15.5388 12.8285 15.4823 12.5946 15.3505 12.4025C14.7532 11.5278 14.0572 10.4158 13.0478 9.6785C12.9176 9.58411 12.765 9.52525 12.6051 9.50772C12.4452 9.49018 12.2835 9.51458 12.1358 9.5785C10.9092 10.1038 9.84784 11.4505 9.8985 12.8358C9.93184 13.7452 10.2878 16.3198 12.9838 19.0172Z" fill="#F8BF00"/>
</g>
</svg>
