<svg width="54" height="54" viewBox="0 0 54 54" fill="none" xmlns="http://www.w3.org/2000/svg">
<g id="parking_5375572 1">
<g id="Group">
<path id="Vector" d="M20.6719 35.0156C20.6719 31.5263 17.8331 28.6875 14.3438 28.6875H10.125C6.63567 28.6875 3.79688 31.5263 3.79688 35.0156V37.125H1.6875V41.3438H3.79688V47.6719C3.79688 51.1612 6.63567 54 10.125 54H14.3438C17.8331 54 20.6719 51.1612 20.6719 47.6719V41.3438H22.7812V37.125H20.6719V35.0156ZM8.01562 35.0156C8.01562 33.8525 8.96189 32.9062 10.125 32.9062H14.3438C15.5069 32.9062 16.4531 33.8525 16.4531 35.0156V37.125H8.01562V35.0156ZM16.4531 47.6719C16.4531 48.835 15.5069 49.7812 14.3438 49.7812H10.125C8.96189 49.7812 8.01562 48.835 8.01562 47.6719V41.3438H16.4531V47.6719Z" fill="#282828"/>
<path id="Vector_2" d="M20.6719 6.32812C20.6719 2.8388 17.8331 0 14.3438 0H10.125C6.63567 0 3.79688 2.8388 3.79688 6.32812V8.4375H1.6875V12.6562H3.79688V18.9844C3.79688 22.4737 6.63567 25.3125 10.125 25.3125H14.3438C17.8331 25.3125 20.6719 22.4737 20.6719 18.9844V12.6562H22.7812V8.4375H20.6719V6.32812ZM8.01562 6.32812C8.01562 5.16502 8.96189 4.21875 10.125 4.21875H14.3438C15.5069 4.21875 16.4531 5.16502 16.4531 6.32812V8.4375H8.01562V6.32812ZM16.4531 18.9844C16.4531 20.1475 15.5069 21.0938 14.3438 21.0938H10.125C8.96189 21.0938 8.01562 20.1475 8.01562 18.9844V12.6562H16.4531V18.9844Z" fill="#F8BF00"/>
<path id="Vector_3" d="M50.2031 35.0156C50.2031 31.5263 47.3643 28.6875 43.875 28.6875H39.6562C36.1669 28.6875 33.3281 31.5263 33.3281 35.0156V37.125H31.2188V41.3438H33.3281V47.6719C33.3281 51.1612 36.1669 54 39.6562 54H43.875C47.3643 54 50.2031 51.1612 50.2031 47.6719V41.3438H52.3125V37.125H50.2031V35.0156ZM37.5469 35.0156C37.5469 33.8525 38.4931 32.9062 39.6562 32.9062H43.875C45.0381 32.9062 45.9844 33.8525 45.9844 35.0156V37.125H37.5469V35.0156ZM45.9844 47.6719C45.9844 48.835 45.0381 49.7812 43.875 49.7812H39.6562C38.4931 49.7812 37.5469 48.835 37.5469 47.6719V41.3438H45.9844V47.6719Z" fill="#F8BF00"/>
<path id="Vector_4" d="M50.2031 8.4375V6.32812C50.2031 2.8388 47.3643 0 43.875 0H39.6562C36.1669 0 33.3281 2.8388 33.3281 6.32812V8.4375H31.2188V12.6562H33.3281V18.9844C33.3281 22.4737 36.1669 25.3125 39.6562 25.3125H43.875C47.3643 25.3125 50.2031 22.4737 50.2031 18.9844V12.6562H52.3125V8.4375H50.2031ZM37.5469 6.32812C37.5469 5.16502 38.4931 4.21875 39.6562 4.21875H43.875C45.0381 4.21875 45.9844 5.16502 45.9844 6.32812V8.4375H37.5469V6.32812ZM45.9844 18.9844C45.9844 20.1475 45.0381 21.0938 43.875 21.0938H39.6562C38.4931 21.0938 37.5469 20.1475 37.5469 18.9844V12.6562H45.9844V18.9844Z" fill="black"/>
<path id="Vector_5" d="M24.8906 0H29.1094V54H24.8906V0Z" fill="#282828"/>
</g>
</g>
</svg>
