<svg width="19" height="22" viewBox="0 0 19 22" fill="none" xmlns="http://www.w3.org/2000/svg">
<path id="Vector" d="M15.885 11.6263C15.8741 9.8229 16.714 8.46385 18.4101 7.46173C17.4616 6.13967 16.0264 5.41253 14.1345 5.27239C12.3432 5.13489 10.3834 6.28774 9.66584 6.28774C8.90748 6.28774 7.1733 5.31999 5.80874 5.31999C2.99271 5.3623 0 7.50403 0 11.8616C0 13.1493 0.241925 14.4793 0.725751 15.8489C1.37268 17.6522 3.70487 22.0706 6.13764 21.9991C7.40977 21.97 8.30951 21.1213 9.96482 21.1213C11.5713 21.1213 12.403 21.9991 13.8219 21.9991C16.2764 21.9647 18.3857 17.9484 19 16.1398C15.7083 14.63 15.885 11.7188 15.885 11.6263ZM13.0282 3.56164C14.4063 1.96987 14.2813 0.520895 14.2405 0C13.0227 0.0687501 11.6148 0.806455 10.8128 1.71339C9.92945 2.68643 9.41035 3.88952 9.5218 5.24595C10.8373 5.34378 12.0388 4.6854 13.0282 3.56164Z" fill="white"/>
</svg>
