<svg width="25" height="25" viewBox="0 0 25 25" fill="none" xmlns="http://www.w3.org/2000/svg">
<path id="Vector" d="M13.785 0.00153794C14.6971 -0.00196222 15.6093 0.00720512 16.5211 0.0290371L16.7636 0.0377868C17.0436 0.0477864 17.3198 0.060286 17.6536 0.0752854C18.9835 0.137783 19.891 0.347776 20.6872 0.656516C21.5121 0.974005 22.2071 1.40399 22.902 2.09897C23.5375 2.72345 24.0293 3.47885 24.3432 4.31264C24.652 5.10886 24.8619 6.01758 24.9244 7.34754C24.9394 7.68003 24.9519 7.95752 24.9619 8.23751L24.9694 8.48C24.9916 9.39146 25.0012 10.3032 24.9982 11.2149L24.9994 12.1474V13.7848C25.0025 14.697 24.9929 15.6091 24.9707 16.521L24.9632 16.7635C24.9532 17.0435 24.9407 17.3197 24.9257 17.6534C24.8632 18.9834 24.6507 19.8909 24.3432 20.6871C24.0303 21.5218 23.5384 22.2778 22.902 22.902C22.277 23.5374 21.5213 24.0292 20.6872 24.3432C19.891 24.6519 18.9835 24.8619 17.6536 24.9244C17.3198 24.9394 17.0436 24.9519 16.7636 24.9619L16.5211 24.9694C15.6093 24.9917 14.6971 25.0012 13.785 24.9982L12.8526 24.9994H11.2164C10.3043 25.0025 9.39215 24.9929 8.48029 24.9707L8.2378 24.9632C7.94108 24.9524 7.64442 24.9399 7.34784 24.9257C6.01791 24.8632 5.11046 24.6507 4.313 24.3432C3.4789 24.0299 2.72338 23.538 2.09936 22.902C1.4632 22.2774 0.970952 21.5215 0.656938 20.6871C0.348203 19.8909 0.138214 18.9834 0.0757173 17.6534C0.0617966 17.3568 0.0492972 17.0602 0.0382193 16.7635L0.0319697 16.521C0.00892539 15.6091 -0.00149186 14.697 0.000721214 13.7848V11.2149C-0.00276731 10.3032 0.00639986 9.39146 0.0282199 8.48L0.0369694 8.23751C0.0469689 7.95752 0.0594682 7.68003 0.0744675 7.34754C0.136964 6.01633 0.346953 5.11011 0.655688 4.31264C0.969887 3.47844 1.4631 2.72325 2.10061 2.10022C2.7242 1.46368 3.47924 0.970971 4.313 0.656516C5.11046 0.347776 6.01666 0.137783 7.34784 0.0752854L8.2378 0.0377868L8.48029 0.0315371C9.39172 0.00850393 10.3034 -0.0019135 11.2151 0.000288075L13.785 0.00153794ZM12.5001 6.25133C11.672 6.23961 10.8499 6.3926 10.0814 6.70139C9.31299 7.01019 8.61359 7.46863 8.02387 8.05008C7.43414 8.63153 6.96586 9.32439 6.64624 10.0884C6.32661 10.8524 6.16202 11.6723 6.16202 12.5005C6.16202 13.3287 6.32661 14.1486 6.64624 14.9126C6.96586 15.6766 7.43414 16.3694 8.02387 16.9509C8.61359 17.5323 9.31299 17.9908 10.0814 18.2996C10.8499 18.6084 11.672 18.7614 12.5001 18.7497C14.1576 18.7497 15.7472 18.0912 16.9193 16.9191C18.0913 15.7471 18.7498 14.1574 18.7498 12.4999C18.7498 10.8423 18.0913 9.25266 16.9193 8.0806C15.7472 6.90853 14.1576 6.25133 12.5001 6.25133ZM12.5001 8.75124C12.9982 8.74206 13.4931 8.83223 13.956 9.01649C14.4189 9.20075 14.8404 9.47539 15.1959 9.82438C15.5514 10.1734 15.8339 10.5897 16.0267 11.0491C16.2195 11.5085 16.3189 12.0016 16.319 12.4999C16.3191 12.9981 16.2199 13.4913 16.0272 13.9507C15.8345 14.4101 15.5522 14.8266 15.1968 15.1757C14.8414 15.5248 14.42 15.7996 13.9572 15.984C13.4944 16.1684 12.9994 16.2587 12.5013 16.2497C11.5068 16.2497 10.553 15.8547 9.84982 15.1514C9.14659 14.4482 8.75152 13.4944 8.75152 12.4999C8.75152 11.5053 9.14659 10.5515 9.84982 9.8483C10.553 9.14506 11.5068 8.74999 12.5013 8.74999L12.5001 8.75124ZM19.0622 4.37639C18.659 4.39253 18.2777 4.56407 17.9981 4.85509C17.7185 5.1461 17.5623 5.53402 17.5623 5.93759C17.5623 6.34115 17.7185 6.72907 17.9981 7.02008C18.2777 7.3111 18.659 7.48264 19.0622 7.49878C19.4766 7.49878 19.874 7.33417 20.167 7.04115C20.4601 6.74814 20.6247 6.35072 20.6247 5.93634C20.6247 5.52195 20.4601 5.12454 20.167 4.83152C19.874 4.5385 19.4766 4.37389 19.0622 4.37389V4.37639Z" fill="#F8BF00"/>
</svg>
