<svg width="26" height="26" viewBox="0 0 26 26" fill="none" xmlns="http://www.w3.org/2000/svg">
<g id="&#208;&#184;&#208;&#186;&#208;&#190;&#208;&#189;&#208;&#186;&#208;&#184;" clip-path="url(#clip0_83_906)">
<g id="&#208;&#161;&#208;&#187;&#208;&#190;&#208;&#185;_x0020_1">
<g id="_1879065585760">
<path id="Vector" d="M19.8841 4.64404C19.0406 4.64404 18.3611 5.32699 18.3611 6.16702C18.3611 7.01046 19.044 7.68999 19.8841 7.68999C20.7241 7.68999 21.4071 7.00705 21.4071 6.16702C21.4071 5.32699 20.7241 4.64404 19.8841 4.64404Z" fill="#FEFEFE"/>
<path id="Vector_2" d="M13.1058 17.1012C10.8452 17.1012 9.00468 15.2606 9.00468 13.0001C9.00468 10.7395 10.8452 8.89895 13.1058 8.89895C15.3664 8.89895 17.2069 10.7395 17.2069 13.0001C17.2069 15.2606 15.3664 17.1012 13.1058 17.1012ZM13.1058 6.59741C9.57494 6.59741 6.70312 9.46921 6.70312 13.0001C6.70312 16.5309 9.57494 19.4027 13.1058 19.4027C16.6367 19.4027 19.5085 16.5309 19.5085 13.0001C19.5085 9.46921 16.6367 6.59741 13.1058 6.59741Z" fill="#FEFEFE"/>
<path id="Vector_3" d="M7.80956 2.44496C4.85238 2.44496 2.44497 4.85235 2.44497 7.80952V18.1903C2.44497 21.1475 4.85238 23.5549 7.80956 23.5549H18.1904C21.1476 23.5549 23.555 21.1475 23.555 18.1903V7.80952C23.555 4.85235 21.1476 2.44496 18.1904 2.44496H7.80956ZM18.1904 25.9999H7.80956C3.50355 25.9999 0 22.4963 0 18.1903V7.80952C0 3.50353 3.50355 0 7.80956 0H18.1904C22.4965 0 26 3.50353 26 7.80952V18.1903C26 22.4963 22.4965 25.9999 18.1904 25.9999Z" fill="#FEFEFE"/>
</g>
</g>
</g>
<defs>
<clipPath id="clip0_83_906">
<rect width="26" height="26" fill="white"/>
</clipPath>
</defs>
</svg>
