<svg width="12" height="25" viewBox="0 0 12 25" fill="none" xmlns="http://www.w3.org/2000/svg">
<g id="&#208;&#184;&#208;&#186;&#208;&#190;&#208;&#189;&#208;&#186;&#208;&#184; &#208;&#164;&#208;&#145;" clip-path="url(#clip0_83_914)">
<g id="&#208;&#161;&#208;&#187;&#208;&#190;&#208;&#185;_x0020_1">
<path id="Vector" fill-rule="evenodd" clip-rule="evenodd" d="M2.64714 12.596V24.6799C2.64714 24.8527 2.79263 24.9935 2.97118 24.9935H7.60687C7.78542 24.9935 7.93091 24.8527 7.93091 24.6799V12.3975H11.2903C11.4622 12.3975 11.6011 12.2695 11.6143 12.1095L11.9384 8.41009C11.9516 8.22447 11.8061 8.07086 11.6143 8.07086H7.93091V5.4467C7.93091 4.83226 8.44672 4.33302 9.08156 4.33302H11.6738C11.8524 4.33302 11.9979 4.19222 11.9979 4.0194V0.319968C11.9979 0.147157 11.8524 0.00634766 11.6738 0.00634766H7.29606C4.73023 0.00634766 2.64714 2.02248 2.64714 4.50584V8.07086H0.325989C0.147439 8.07086 0.00195312 8.21167 0.00195312 8.38448V12.0839C0.00195312 12.2567 0.147439 12.3975 0.325989 12.3975H2.64714V12.596Z" fill="#FEFEFE"/>
</g>
</g>
<defs>
<clipPath id="clip0_83_914">
<rect width="12" height="25" fill="white"/>
</clipPath>
</defs>
</svg>
