<svg width="54" height="54" viewBox="0 0 54 54" fill="none" xmlns="http://www.w3.org/2000/svg">
<g id="&#208;&#161;&#208;&#187;&#208;&#190;&#208;&#185;_x0020_1">
<g id="_1918600782768">
<path id="Vector" fill-rule="evenodd" clip-rule="evenodd" d="M9.07384 22.5359C10.5967 22.178 12.5922 21.325 14.126 20.7656C15.2739 20.3471 15.8671 20.4379 16.1768 19.4232C16.4605 18.4935 16.5559 17.7132 16.9021 16.7865C21.2225 5.22294 35.7342 4.24079 42.9128 11.3813C50.1479 18.578 48.527 32.9852 37.1289 37.1844C33.9539 38.3541 34.4086 36.9389 33.2484 40.0595C32.6945 41.5495 31.8994 43.4352 31.5295 44.9366C47.8444 44.4759 56.4307 30.7211 53.397 17.1533C51.4623 8.50088 45.0666 2.43739 36.4262 0.555148C31.4312 -0.532961 26.4752 -0.0125464 22.2063 2.03733C15.3517 5.3289 9.11678 12.0383 9.07373 22.5359H9.07384Z" fill="#F8BF00"/>
<path id="Vector_2" fill-rule="evenodd" clip-rule="evenodd" d="M9.00121 34.6866C10.1898 33.9284 14.9512 32.4328 16.5698 31.8516C18.2443 31.2504 22.915 29.0748 24.3962 29.6475C24.9634 31.1185 22.8214 35.7877 22.1935 37.4632C21.2751 39.9141 20.4507 42.6064 19.3947 45.0282L9.0011 34.6867L9.00121 34.6866ZM11.8232 47.0685C14.3988 49.6825 16.5834 52.682 20.1187 52.4879C24.4414 52.2507 25.3058 48.7588 26.574 45.2102C27.7866 41.8167 28.9942 38.4813 30.2394 35.1573C31.8387 30.8882 31.9325 27.9565 29.1058 24.9505C26.3124 21.98 22.816 22.3662 18.7321 23.8855C15.355 25.1419 12.0799 26.3289 8.65614 27.5396C6.97216 28.1351 5.03675 28.711 3.74733 29.6058C2.71188 30.3243 1.57014 32.1137 1.50867 34.1263C1.40859 37.401 4.48263 39.8972 6.94752 42.1877C3.98311 46.1825 -2.58561 49.2248 1.08715 52.9093C4.62488 56.4583 7.63301 50.5016 11.8232 47.0685Z" fill="#282828"/>
<path id="Vector_3" fill-rule="evenodd" clip-rule="evenodd" d="M35.9682 31.5165C41.7276 29.0875 44.1455 20.1707 38.7889 15.285C36.7661 13.44 33.308 11.8341 29.4301 12.6147C26.2499 13.2548 23.4033 15.5038 22.5293 18.2002C28.301 17.9319 33.0473 20.9149 35.0676 25.96C35.9571 28.1815 35.7059 29.1926 35.9683 31.5164L35.9682 31.5165Z" fill="#F8BF00"/>
</g>
</g>
</svg>
